<?xml version="1.0" standalone="no"?>
<!DOCTYPE svg PUBLIC "-//W3C//DTD SVG 20010904//EN"
 "http://www.w3.org/TR/2001/REC-SVG-20010904/DTD/svg10.dtd">
<svg version="1.0" xmlns="http://www.w3.org/2000/svg"
 width="1088.000000pt" height="1088.000000pt" viewBox="0 0 1088.000000 1088.000000"
 preserveAspectRatio="xMidYMid meet">
<metadata>
Created by potrace 1.11, written by Peter Selinger 2001-2013
</metadata>
<g transform="translate(0.000000,1088.000000) scale(0.100000,-0.100000)"
fill="#000000" stroke="none">
<path d="M5235 9002 c-2 -3 -28 -6 -57 -7 -74 -4 -227 -15 -263 -20 -38 -6
-115 -14 -180 -21 -27 -3 -61 -7 -75 -10 -14 -2 -45 -7 -70 -10 -25 -2 -70 -9
-100 -14 -30 -5 -71 -11 -90 -14 -19 -3 -45 -8 -56 -10 -12 -2 -39 -7 -60 -10
-22 -4 -86 -16 -144 -27 -58 -11 -116 -23 -130 -25 -14 -3 -45 -10 -70 -15
-25 -6 -56 -13 -69 -15 -12 -3 -53 -12 -90 -20 -36 -9 -74 -17 -84 -20 -10 -2
-27 -6 -37 -9 -10 -3 -28 -8 -41 -10 -12 -2 -57 -14 -100 -25 -44 -11 -87 -22
-96 -24 -19 -3 -27 -6 -109 -37 -51 -20 -129 -90 -154 -139 -35 -66 -45 -188
-24 -290 12 -57 12 -59 24 -133 7 -40 14 -81 16 -92 12 -58 16 -82 19 -100 1
-11 5 -36 9 -55 3 -19 8 -48 11 -65 2 -16 7 -41 10 -55 3 -14 7 -41 9 -60 3
-19 11 -73 20 -120 8 -47 17 -101 20 -120 43 -267 128 -362 326 -361 78 0 88
1 230 27 47 9 94 17 105 19 52 8 101 17 115 20 8 2 31 7 50 10 19 3 42 8 50
10 14 4 76 14 125 20 11 1 20 3 20 5 0 1 11 3 25 5 14 1 45 5 70 9 25 4 56 9
70 11 14 2 57 8 95 14 92 15 110 18 175 26 30 4 64 9 74 11 26 5 125 16 261
29 39 4 88 9 110 11 86 10 308 25 395 28 125 3 297 -19 390 -51 25 -8 52 -16
60 -18 17 -4 112 -53 155 -81 30 -19 81 -62 118 -99 30 -31 117 -168 117 -186
0 -8 4 -19 9 -25 11 -11 39 -108 49 -167 9 -55 9 -344 0 -378 l-8 -26 -192 3
c-106 1 -323 6 -483 10 -370 9 -829 9 -1015 0 -151 -8 -166 -9 -290 -20 -69
-6 -95 -9 -177 -21 -26 -3 -176 -33 -198 -39 -5 -1 -30 -8 -55 -15 -25 -8 -52
-15 -60 -16 -8 -2 -15 -4 -15 -5 0 -1 -7 -3 -15 -5 -8 -1 -46 -15 -85 -31
l-70 -27 -1790 -2 c-1453 -1 -1799 -3 -1837 -14 -30 -9 -64 -29 -92 -55 -123
-116 -92 -312 62 -388 l47 -23 1285 0 1285 -1 0 -54 0 -55 -135 -3 c-74 -1
-137 -7 -140 -11 -4 -7 -5 -781 -1 -828 1 -8 40 -11 139 -10 l138 2 0 -140 -1
-140 -139 -5 -140 -5 -1 -138 c0 -115 2 -137 15 -138 8 -1 134 -2 280 -3 l265
-1 0 -132 c0 -72 4 -135 9 -140 4 -4 131 -8 282 -9 l274 0 -1 133 c-1 74 2
137 6 141 4 4 59 8 123 8 65 1 125 2 135 3 15 1 17 15 17 140 l0 139 140 1
140 0 0 -283 0 -282 -276 0 c-152 1 -278 -2 -280 -6 -6 -10 -7 -548 -1 -554 4
-4 102 -6 225 -5 l52 1 0 140 0 140 140 0 140 0 0 -279 c0 -214 3 -280 13
-283 6 -3 70 -4 140 -3 124 2 128 1 126 -19 0 -12 -1 -75 0 -142 l1 -121 140
0 139 0 3 267 c2 147 2 274 0 284 -3 14 -19 16 -130 15 -70 0 -133 0 -139 0
-10 1 -13 36 -13 141 l0 140 140 0 c105 0 140 -3 141 -12 0 -7 0 -70 -1 -140
l-1 -128 33 -1 c18 0 82 -1 142 -2 l108 -2 -1 -136 c-2 -104 1 -138 11 -141 7
-2 70 -4 141 -3 l127 1 1 -125 c0 -69 0 -196 0 -282 l-2 -157 41 -4 c23 -2 44
0 46 4 3 5 10 5 16 2 10 -7 169 -6 176 1 2 1 3 128 3 282 l0 279 127 -1 c70
-1 134 1 142 2 13 3 15 27 14 143 l-2 139 139 -2 c87 -1 139 2 140 8 0 6 1 70
0 143 l0 132 142 0 142 0 0 -282 0 -282 138 -1 c85 0 137 4 138 10 1 5 2 69 3
140 l1 130 140 0 140 0 0 -280 0 -280 131 -1 c72 0 135 -3 140 -7 5 -3 9 -66
9 -140 l0 -135 58 -4 c33 -2 64 0 70 4 6 4 15 4 21 1 5 -4 37 -7 70 -7 l61 -1
0 -135 c0 -74 3 -137 6 -140 4 -3 67 -5 141 -4 l133 0 0 140 c0 132 1 139 20
140 11 1 25 3 30 4 6 1 15 1 20 0 20 -4 478 1 485 5 13 8 7 265 -7 273 -6 4
-68 6 -137 5 -111 -1 -126 1 -127 15 -1 10 -1 73 -2 142 l0 125 129 1 c71 1
134 2 139 3 7 1 11 94 11 281 l0 281 -140 -3 -140 -3 0 -280 -1 -280 -130 -1
c-71 0 -134 -2 -140 -2 -6 -1 -10 -102 -10 -279 l0 -278 -83 -5 c-46 -3 -94
-2 -107 2 -14 3 -25 3 -25 -1 0 -4 -15 -5 -32 -3 l-33 4 0 139 c0 87 -3 139
-10 140 -5 0 -69 1 -140 1 l-130 0 0 141 0 142 135 0 c74 0 137 3 140 7 3 4 5
68 5 143 l-1 136 61 -1 c33 -1 96 -1 141 -1 l81 1 -1 143 -2 142 142 -3 141
-3 -1 133 c-1 73 -1 138 1 143 2 6 54 10 131 9 70 -1 132 1 138 3 8 3 11 49
10 142 l-1 138 -135 -2 c-74 -1 -137 -3 -140 -4 -3 0 -5 -63 -5 -138 l0 -138
-140 -1 -140 0 0 138 c0 84 4 139 10 140 6 1 64 2 130 4 66 1 125 2 131 3 7 1
11 47 10 144 l-1 142 110 -5 c61 -3 124 -3 141 0 l31 5 -1 603 c-1 331 2 610
5 619 5 16 94 17 1150 18 l1144 0 40 22 c122 64 170 199 114 318 -26 56 -89
111 -143 127 -30 8 -357 11 -1178 12 l-1138 0 -1 41 c-4 214 -21 521 -34 595
-2 14 -6 57 -9 95 -3 39 -8 79 -10 90 -2 11 -7 47 -11 80 -4 32 -9 68 -11 80
-4 19 -9 48 -19 118 -10 70 -29 154 -37 171 -6 11 -6 16 0 13 10 -7 4 15 -66
234 -27 86 -75 208 -106 272 -54 114 -133 249 -148 255 -4 2 -8 10 -8 17 0 7
-3 15 -7 17 -5 2 -24 23 -43 48 -119 154 -291 305 -460 403 -70 41 -229 117
-243 117 -9 0 -17 3 -19 8 -1 4 -37 18 -78 31 -41 14 -79 27 -85 30 -5 3 -14
6 -20 7 -5 1 -45 12 -88 24 -43 12 -91 23 -105 25 -15 3 -36 6 -47 9 -11 2
-40 9 -65 15 -25 5 -67 12 -95 16 -27 3 -57 7 -65 10 -8 2 -37 6 -65 10 -27 3
-63 8 -80 10 -54 7 -119 14 -185 20 -36 3 -92 8 -125 11 -76 8 -793 13 -800 6z
m894 -3477 c2 -3 4 -66 4 -140 l-1 -135 26 -1 c15 0 79 0 142 0 l115 1 0 -142
0 -142 138 0 c75 -1 137 -3 138 -6 1 -3 2 -66 3 -141 l1 -137 -125 0 c-69 0
-132 0 -141 -1 -14 -1 -16 -33 -15 -283 l1 -283 -141 1 -140 1 -1 -134 c-1
-74 -4 -138 -8 -141 -4 -4 -66 -7 -138 -7 l-132 -1 -2 -114 c-1 -63 -2 -128
-2 -145 l-1 -30 -139 3 -139 3 0 -136 c0 -75 -2 -138 -4 -140 -3 -4 -321 -7
-510 -5 l-48 0 0 140 0 140 138 0 c75 1 201 1 279 0 l142 -1 3 103 c2 57 1
121 -2 143 l-5 40 -417 0 -418 -1 0 142 0 141 -140 -1 -140 -2 0 283 c0 219
-3 283 -12 284 -7 0 -69 1 -138 2 l-125 2 -3 140 -3 140 138 0 138 0 3 142 3
142 117 0 c64 0 127 0 140 0 22 1 22 3 22 141 l0 139 138 3 c210 4 1255 -2
1261 -7z m-2522 -418 l-2 -141 -137 -1 c-87 0 -138 3 -139 10 -1 14 -1 258 0
267 1 4 64 7 140 7 l139 0 -1 -142z m-283 -157 c2 -8 4 -72 4 -141 l0 -125
-274 -1 c-179 0 -277 3 -281 10 -6 11 -12 243 -6 262 2 7 100 11 278 11 240 0
275 -2 279 -16z m4211 -408 l0 -143 -80 1 c-153 0 -190 1 -195 6 -2 3 -5 67
-5 142 l-1 137 141 0 140 0 0 -143z m-3927 -287 l2 -140 -140 0 c-77 0 -140 2
-141 5 0 3 -1 67 -2 142 l-2 137 140 -2 140 -2 3 -140z m3367 10 c0 -74 -4
-137 -8 -141 -4 -4 -67 -8 -140 -8 l-132 -1 1 130 c0 71 2 135 2 142 2 9 39
12 140 12 l137 -1 0 -133z m280 -282 c0 -72 4 -135 8 -140 5 -4 68 -8 140 -8
l132 -1 0 -273 c0 -150 -2 -276 -5 -281 -5 -9 -125 -12 -421 -10 l-135 0 0
140 1 140 137 0 c76 0 139 3 139 8 1 4 2 68 3 142 l2 135 -141 0 -140 -1 -1
136 c0 74 3 138 8 141 5 3 68 5 141 5 l132 -1 0 -132z m-2812 -152 c4 -1 7
-64 7 -141 l0 -140 -140 0 -140 0 0 138 c0 76 2 141 4 143 4 3 243 3 269 0z"/>
<path d="M2492 3825 c-4 -5 -7 -70 -7 -143 l0 -133 141 3 140 3 0 -282 c-1
-243 1 -282 14 -285 8 -2 72 -4 141 -3 l126 1 0 -121 c1 -66 1 -130 2 -141 1
-21 6 -21 124 -22 67 0 129 1 138 4 14 4 16 25 17 142 l1 138 -136 -1 c-74 0
-137 4 -141 9 -4 7 -7 231 -3 268 1 3 63 6 140 6 l139 0 -1 -134 c0 -73 3
-137 7 -141 4 -4 64 -8 134 -9 70 -1 130 -2 134 -3 4 0 7 -125 6 -277 0 -151
2 -277 4 -279 4 -4 123 -8 220 -6 l57 1 3 142 3 142 138 -1 137 -1 0 142 0
142 -280 -1 -280 -1 -1 56 c0 30 0 94 0 143 l2 87 -137 -1 c-75 0 -138 2 -141
5 -3 3 -5 66 -6 141 l0 135 -141 0 -141 0 1 142 1 143 -275 0 c-172 0 -276 -4
-280 -10z"/>
<path d="M6135 2980 c-2 -3 -3 -67 -2 -141 l2 -136 -120 -1 c-66 0 -130 -1
-142 -1 -21 -1 -22 -4 -22 -139 0 -123 2 -139 17 -140 39 -3 257 -1 260 3 2 2
4 62 4 134 0 86 3 133 11 138 6 3 69 6 139 6 118 0 128 1 129 18 1 11 1 66 1
124 0 58 0 113 -1 123 -1 16 -14 18 -137 18 -74 0 -137 -3 -139 -6z"/>
<path d="M4553 2422 l-103 -3 0 -138 c0 -102 3 -140 13 -143 10 -3 215 -3 255
1 9 1 12 36 12 140 l0 140 -29 -1 c-15 -1 -32 1 -37 3 -5 2 -55 3 -111 1z"/>
<path d="M3890 1995 l0 -141 140 0 140 -1 0 139 c0 103 -3 138 -12 140 -7 0
-70 2 -140 2 l-128 2 0 -141z"/>
</g>
</svg>
