<?xml version="1.0" encoding="UTF-8"?>
<svg width="13px" height="14px" viewBox="0 0 13 14" version="1.1" xmlns="http://www.w3.org/2000/svg" xmlns:xlink="http://www.w3.org/1999/xlink">
    <!-- Generator: Sketch 52.5 (67469) - http://www.bohemiancoding.com/sketch -->
    <title>Group 8</title>
    <desc>Created with Sketch.</desc>
    <g id="Main" stroke="none" stroke-width="1" fill="none" fill-rule="evenodd">
        <g transform="translate(-1672.000000, -100.000000)" fill-rule="nonzero" id="Group-17" stroke="currentColor" stroke-width="0.8">
            <g transform="translate(1652.000000, 81.000000)">
                <g id="Group-8" transform="translate(20.000000, 19.500000)">
                    <path d="M1.15974059,0.639904538 C1.01922737,0.630608861 0.881534858,0.682384785 0.781959822,0.781959822 C0.682384785,0.881534858 0.630608861,1.01922737 0.639904538,1.15974059 L0.639904538,4.79859297 C0.630608861,4.93910619 0.682384785,5.0767987 0.781959822,5.17637374 C0.881534858,5.27594877 1.01922737,5.3277247 1.15974059,5.31842902 L4.79859297,5.31842902 C4.93910619,5.3277247 5.0767987,5.27594877 5.17637374,5.17637374 C5.27594877,5.0767987 5.3277247,4.93910619 5.31842902,4.79859297 L5.31842902,1.15974059 C5.3277247,1.01922737 5.27594877,0.881534858 5.17637374,0.781959822 C5.0767987,0.682384785 4.93910619,0.630608861 4.79859297,0.639904538 L1.15974059,0.639904538 Z" id="Path"></path>
                    <path d="M1.15974059,7.6815712 C1.01922737,7.67227553 0.881534858,7.72405145 0.781959822,7.82362649 C0.682384785,7.92320152 0.630608861,8.06089403 0.639904538,8.20140726 L0.639904538,11.8402596 C0.630608861,11.9807729 0.682384785,12.1184654 0.781959822,12.2180404 C0.881534858,12.3176154 1.01922737,12.3693914 1.15974059,12.3600957 L4.79859297,12.3600957 C4.93910619,12.3693914 5.0767987,12.3176154 5.17637374,12.2180404 C5.27594877,12.1184654 5.3277247,11.9807729 5.31842902,11.8402596 L5.31842902,8.20140726 C5.3277247,8.06089403 5.27594877,7.92320152 5.17637374,7.82362649 C5.0767987,7.72405145 4.93910619,7.67227553 4.79859297,7.6815712 L1.15974059,7.6815712 Z" id="Path"></path>
                    <path d="M11.8402596,7.6815712 L8.20140726,7.6815712 C8.06089403,7.67227553 7.92320152,7.72405145 7.82362649,7.82362649 C7.72405145,7.92320152 7.67227553,8.06089403 7.6815712,8.20140726 L7.6815712,11.8402596 C7.67227553,11.9807729 7.72405145,12.1184654 7.82362649,12.2180404 C7.92320152,12.3176154 8.06089403,12.3693914 8.20140726,12.3600957 L11.8402596,12.3600957 C11.9807729,12.3693914 12.1184654,12.3176154 12.2180404,12.2180404 C12.3176154,12.1184654 12.3693914,11.9807729 12.3600957,11.8402596 L12.3600957,8.20140726 C12.3693914,8.06089403 12.3176154,7.92320152 12.2180404,7.82362649 C12.1184654,7.72405145 11.9807729,7.67227553 11.8402596,7.6815712 Z" id="Path"></path>
                    <path d="M11.8402596,0.639904538 L8.20140726,0.639904538 C8.06089403,0.630608861 7.92320152,0.682384785 7.82362649,0.781959822 C7.72405145,0.881534858 7.67227553,1.01922737 7.6815712,1.15974059 L7.6815712,4.79859297 C7.67227553,4.93910619 7.72405145,5.0767987 7.82362649,5.17637374 C7.92320152,5.27594877 8.06089403,5.3277247 8.20140726,5.31842902 L11.8402596,5.31842902 C11.9807729,5.3277247 12.1184654,5.27594877 12.2180404,5.17637374 C12.3176154,5.0767987 12.3693914,4.93910619 12.3600957,4.79859297 L12.3600957,1.15974059 C12.3693914,1.01922737 12.3176154,0.881534858 12.2180404,0.781959822 C12.1184654,0.682384785 11.9807729,0.630608861 11.8402596,0.639904538 Z" id="Path" fill="#00011F"></path>
                </g>
            </g>
        </g>
    </g>
</svg>