<?xml version="1.0" encoding="UTF-8"?>
<svg width="61px" height="56px" viewBox="0 0 61 56" version="1.1" xmlns="http://www.w3.org/2000/svg" xmlns:xlink="http://www.w3.org/1999/xlink">
    <!-- Generator: Sketch 52.5 (67469) - http://www.bohemiancoding.com/sketch -->
    <title>user copy</title>
    <desc>Created with Sketch.</desc>
    <g id="User's-View" stroke="none" stroke-width="1" fill="none" fill-rule="evenodd">
        <g id="10.20.00---Profile-Page---Upload-Photo" transform="translate(-190.000000, -197.000000)" stroke="currentColor" stroke-width="1.5">
            <g id="user-copy" transform="translate(220.500000, 224.900000) scale(-1, 1) translate(-220.500000, -224.900000) translate(191.000000, 197.400000)">
                <path d="M54.3632197,43.9271784 L44.6690579,39.0800975 C43.4166923,38.4539147 42.6250836,37.1731324 42.6250836,35.772594 L42.6250836,31.9688127 C42.8970722,31.6592734 43.2096562,31.2604244 43.5425378,30.7895187 C44.8639154,28.9241639 45.8625602,26.8710557 46.5557253,24.7164592 C47.7989569,24.3338483 48.7143813,23.1850008 48.7143813,21.8199833 L48.7143813,17.7604515 C48.7143813,16.8673545 48.317562,16.0686416 47.6994983,15.510456 L47.6994983,9.64138796 C47.6994983,9.64138796 48.9041644,0.507441472 36.535786,0.507441472 C24.1663926,0.507441472 25.3720736,9.64138796 25.3720736,9.64138796 L25.3720736,15.510456 C24.7540099,16.0686416 24.3571906,16.8673545 24.3571906,17.7604515 L24.3571906,21.8199833 C24.3571906,22.8896699 24.9194358,23.8304664 25.7607737,24.3744436 C26.7746418,28.7912142 29.4316054,31.9688127 29.4316054,31.9688127 L29.4316054,35.6782099 C29.4316054,37.0310488 28.6927706,38.2763102 27.5043426,38.9238055 L18.4505719,43.8632408 C15.8352186,45.2891513 14.2083612,48.0303502 14.2083612,51.0090316 L14.2083612,54.2962375 L58.8632107,54.2962375 L58.8632107,51.2079487 C58.8632107,48.1247343 57.1206567,45.3064043 54.3632197,43.9271784 Z" id="Path"></path>
                <path d="M18.4505719,43.8632408 L24.4850659,40.5719754 C24.4505599,40.5384843 24.4799915,40.5283355 24.5510333,40.5354396 L27.5043426,38.9248204 C28.6927706,38.2763102 29.4316054,37.0320637 29.4316054,35.6782099 L29.4316054,31.9688127 C29.4316054,31.9688127 28.3537997,30.674837 27.3084702,28.5963567 C27.3084702,28.5953418 27.3074554,28.5943269 27.3074554,28.593312 C27.1704462,28.3213234 27.0354667,28.0341115 26.9025171,27.7367508 C26.8842492,27.6951406 26.8659813,27.6555602 26.8477134,27.61395 C26.7127339,27.3064405 26.5807992,26.9887821 26.4559686,26.6559005 C26.4478495,26.634588 26.4407453,26.6112457 26.4326263,26.5899331 C26.3230189,26.2956171 26.2205157,25.9921671 26.1220721,25.680598 C26.0956851,25.5953478 26.0692982,25.5111125 26.0439261,25.4258624 C25.9414229,25.0828319 25.845009,24.7337122 25.7617886,24.3724139 C24.9194358,23.8304664 24.3571906,22.8896699 24.3571906,21.8199833 L24.3571906,17.7604515 C24.3571906,16.8673545 24.7540099,16.0686416 25.3720736,15.510456 L25.3720736,9.77839716 C23.938044,8.66608545 21.7154503,7.61162207 18.267893,7.61162207 C8.56256739,7.61162207 8.11906355,15.7306856 8.11906355,15.7306856 L8.11906355,20.8000259 C7.58523512,21.2820953 7.1041806,21.9712008 7.1041806,22.7425119 L7.1041806,26.2489324 C7.1041806,27.1734908 7.59030953,27.9853972 8.31595084,28.455288 C9.19179482,32.2692181 12.1319107,35.0144764 12.1319107,35.0144764 L12.1319107,38.2184619 C12.1319107,39.3865921 11.4935493,40.4623681 10.4675027,41.0215686 L3.66372742,45.2861067 C1.40561288,46.5181746 0,48.8848816 0,51.4576099 L0,54.2962375 L14.2083612,54.2962375 L14.2083612,51.0090316 C14.2083612,48.0303502 15.8352186,45.2891513 18.4505719,43.8632408 Z" id="Path"></path>
            </g>
        </g>
    </g>
</svg>