<?xml version="1.0" encoding="UTF-8"?>
<svg width="19px" height="16px" viewBox="0 0 19 16" version="1.1" xmlns="http://www.w3.org/2000/svg" xmlns:xlink="http://www.w3.org/1999/xlink">
    <!-- Generator: Sketch 52.5 (67469) - http://www.bohemiancoding.com/sketch -->
    <title>noun_Alert_2019756</title>
    <desc>Created with Sketch.</desc>
    <g id="User's-View" stroke="none" stroke-width="1" fill="none" fill-rule="evenodd">
        <g id="00.10.00" transform="translate(-1037.000000, -821.000000)">
            <g id="noun_Alert_2019756" transform="translate(1037.357143, 821.000000)">
                <path d="M2.21006993,15.6626695 C1.86414594,15.6626695 1.51822195,15.5665795 1.21073396,15.3936175 C0.730283978,15.1245655 0.384359988,14.6825516 0.249833992,14.1636656 C0.115307997,13.6447796 0.172961995,13.0874576 0.461231986,12.6262256 L7.47580177,1.05698997 C8.07155976,0.0960899971 9.33994772,-0.211397994 10.3008477,0.384359988 C10.5698997,0.557321983 10.8005157,0.768719977 10.9734777,1.05698997 L17.9880475,12.6262256 C18.4492794,13.4141636 18.3147534,14.4134996 17.6805595,15.0476935 C17.2961995,15.4320535 16.7773135,15.6434515 16.2392095,15.6626695 L2.21006993,15.6626695 Z M8.12921375,1.46056796 L1.13386197,13.0298036 C0.960899971,13.2988556 0.922463972,13.6447796 0.99933597,13.9714856 C1.07620797,14.2981916 1.30682396,14.5672436 1.59509395,14.7402056 C1.78727395,14.8555135 1.99867194,14.9131675 2.21006993,14.9131675 L16.2199915,14.9131675 C16.5659155,14.9131675 16.8734035,14.7786416 17.1040195,14.5288076 C17.5075975,14.1252296 17.5844695,13.5102536 17.2961995,13.0298036 L10.3200657,1.46056796 C9.9549237,0.864809974 9.14776772,0.67262998 8.55200974,1.05698997 C8.37904775,1.15307997 8.24452175,1.30682396 8.12921375,1.46056796 Z" id="Shape" fill="#000000" fill-rule="nonzero"></path>
                <path d="M9.22463972,9.9164877 C9.01324173,9.9164877 8.84027973,9.7435257 8.84027973,9.53212771 L8.84027973,4.59310186 C8.84027973,4.38170387 9.01324173,4.20874187 9.22463972,4.20874187 C9.43603771,4.20874187 9.60899971,4.38170387 9.60899971,4.59310186 L9.60899971,9.53212771 C9.60899971,9.7435257 9.43603771,9.9164877 9.22463972,9.9164877 Z" id="Path" fill="#000000"></path>
                <circle id="Oval" fill="#F45B69" cx="9.22463972" cy="11.9920316" r="1"></circle>
                <path d="M2.21006993,15.6626695 C1.86414594,15.6626695 1.51822195,15.5665795 1.21073396,15.3936175 C0.730283978,15.1245655 0.384359988,14.6825516 0.249833992,14.1636656 C0.115307997,13.6447796 0.172961995,13.0874576 0.461231986,12.6262256 L7.47580177,1.05698997 C8.07155976,0.0960899971 9.33994772,-0.211397994 10.3008477,0.384359988 C10.5698997,0.557321983 10.8005157,0.768719977 10.9734777,1.05698997 L17.9880475,12.6262256 C18.4492794,13.4141636 18.3147534,14.4134996 17.6805595,15.0476935 C17.2961995,15.4320535 16.7773135,15.6434515 16.2392095,15.6626695 L2.21006993,15.6626695 Z M8.12921375,1.46056796 L1.13386197,13.0298036 C0.960899971,13.2988556 0.922463972,13.6447796 0.99933597,13.9714856 C1.07620797,14.2981916 1.30682396,14.5672436 1.59509395,14.7402056 C1.78727395,14.8555135 1.99867194,14.9131675 2.21006993,14.9131675 L16.2199915,14.9131675 C16.5659155,14.9131675 16.8734035,14.7786416 17.1040195,14.5288076 C17.5075975,14.1252296 17.5844695,13.5102536 17.2961995,13.0298036 L10.3200657,1.46056796 C9.9549237,0.864809974 9.14776772,0.67262998 8.55200974,1.05698997 C8.37904775,1.15307997 8.24452175,1.30682396 8.12921375,1.46056796 Z" id="Shape" fill="#F45B69" fill-rule="nonzero"></path>
                <path d="M9.22463972,9.9164877 C9.01324173,9.9164877 8.84027973,9.7435257 8.84027973,9.53212771 L8.84027973,4.59310186 C8.84027973,4.38170387 9.01324173,4.20874187 9.22463972,4.20874187 C9.43603771,4.20874187 9.60899971,4.38170387 9.60899971,4.59310186 L9.60899971,9.53212771 C9.60899971,9.7435257 9.43603771,9.9164877 9.22463972,9.9164877 Z" id="Path" fill="#F45B69"></path>
            </g>
        </g>
    </g>
</svg>