<?xml version="1.0" encoding="UTF-8"?>
<svg width="188px" height="56px" viewBox="0 0 188 56" version="1.1" xmlns="http://www.w3.org/2000/svg" xmlns:xlink="http://www.w3.org/1999/xlink">
    <defs>
        <linearGradient x1="90.7692308%" y1="4.84%" x2="-38.3307692%" y2="71.968%" id="linearGradient-1">
            <stop stop-color="#00A0FF" offset="0%"></stop>
            <stop stop-color="#00A1FF" offset="0.7%"></stop>
            <stop stop-color="#00BEFF" offset="26%"></stop>
            <stop stop-color="#00D2FF" offset="51.2%"></stop>
            <stop stop-color="#00DFFF" offset="76%"></stop>
            <stop stop-color="#00E3FF" offset="100%"></stop>
        </linearGradient>
        <linearGradient x1="107.724138%" y1="49.4235294%" x2="-130.669951%" y2="49.4235294%" id="linearGradient-2">
            <stop stop-color="#FFE000" offset="0%"></stop>
            <stop stop-color="#FFBD00" offset="40.9%"></stop>
            <stop stop-color="#FFA500" offset="77.5%"></stop>
            <stop stop-color="#FF9C00" offset="100%"></stop>
        </linearGradient>
        <linearGradient x1="86.3892216%" y1="17.81427%" x2="-49.8862275%" y2="194.389687%" id="linearGradient-3">
            <stop stop-color="#FF3A44" offset="0%"></stop>
            <stop stop-color="#C31162" offset="100%"></stop>
        </linearGradient>
        <linearGradient x1="-18.5808383%" y1="-54.5282125%" x2="42.2754491%" y2="24.6924404%" id="linearGradient-4">
            <stop stop-color="#32A071" offset="0%"></stop>
            <stop stop-color="#2DA771" offset="6.9%"></stop>
            <stop stop-color="#15CF74" offset="47.6%"></stop>
            <stop stop-color="#06E775" offset="80.1%"></stop>
            <stop stop-color="#00F076" offset="100%"></stop>
        </linearGradient>
    </defs>
    <g id="Main" stroke="none" stroke-width="1" fill="none" fill-rule="evenodd">
        <g transform="translate(-296.000000, -609.000000)" fill-rule="nonzero" id="google-play-badge">
            <g transform="translate(296.000000, 609.000000)">
                <path d="M181.037037,56 L6.96296296,56 C3.0637037,56 0,52.92 0,49 L0,7 C0,3.08 3.0637037,0 6.96296296,0 L181.037037,0 C184.936296,0 188,3.08 188,7 L188,49 C188,52.92 184.936296,56 181.037037,56 Z" id="Shape" fill="#000000"></path>
                <path d="M181.037037,1.12 C184.24,1.12 186.885926,3.78 186.885926,7 L186.885926,49 C186.885926,52.22 184.24,54.88 181.037037,54.88 L6.96296296,54.88 C3.76,54.88 1.11407407,52.22 1.11407407,49 L1.11407407,7 C1.11407407,3.78 3.76,1.12 6.96296296,1.12 L181.037037,1.12 Z M181.037037,0 L6.96296296,0 C3.0637037,0 0,3.22 0,7 L0,49 C0,52.92 3.0637037,56 6.96296296,56 L181.037037,56 C184.936296,56 188,52.92 188,49 L188,7 C188,3.22 184.936296,0 181.037037,0 Z" id="Shape" fill="#A6A6A6"></path>
                <path d="M66.3505155,14.7903226 C66.3505155,15.9516129 66.0721649,16.9677419 65.3762887,17.6935484 C64.5412371,18.5645161 63.5670103,19 62.314433,19 C61.0618557,19 60.0876289,18.5645161 59.2525773,17.6935484 C58.4175258,16.8225806 58,15.8064516 58,14.5 C58,13.1935484 58.4175258,12.1774194 59.2525773,11.3064516 C60.0876289,10.4354839 61.0618557,10 62.314433,10 C62.871134,10 63.4278351,10.1451613 63.9845361,10.4354839 C64.5412371,10.7258065 64.9587629,11.016129 65.2371134,11.4516129 L64.5412371,12.1774194 C63.9845361,11.4516129 63.2886598,11.1612903 62.314433,11.1612903 C61.4793814,11.1612903 60.6443299,11.4516129 60.0876289,12.1774194 C59.3917526,12.7580645 59.1134021,13.6290323 59.1134021,14.6451613 C59.1134021,15.6612903 59.3917526,16.5322581 60.0876289,17.1129032 C60.7835052,17.6935484 61.4793814,18.1290323 62.314433,18.1290323 C63.2886598,18.1290323 63.9845361,17.8387097 64.6804124,17.1129032 C65.0979381,16.6774194 65.3762887,16.0967742 65.3762887,15.3709677 L62.314433,15.3709677 L62.314433,14.2096774 L66.3505155,14.2096774 L66.3505155,14.7903226 Z M72.7525773,11.1612903 L68.9948454,11.1612903 L68.9948454,13.9193548 L72.4742268,13.9193548 L72.4742268,14.9354839 L68.9948454,14.9354839 L68.9948454,17.6935484 L72.7525773,17.6935484 L72.7525773,18.8548387 L67.8814433,18.8548387 L67.8814433,10.1451613 L72.7525773,10.1451613 L72.7525773,11.1612903 Z M77.3453608,18.8548387 L76.2319588,18.8548387 L76.2319588,11.1612903 L73.8659794,11.1612903 L73.8659794,10.1451613 L79.7113402,10.1451613 L79.7113402,11.1612903 L77.3453608,11.1612903 L77.3453608,18.8548387 Z M83.7474227,18.8548387 L83.7474227,10.1451613 L84.8608247,10.1451613 L84.8608247,18.8548387 L83.7474227,18.8548387 Z M89.5927835,18.8548387 L88.4793814,18.8548387 L88.4793814,11.1612903 L86.1134021,11.1612903 L86.1134021,10.1451613 L91.8195876,10.1451613 L91.8195876,11.1612903 L89.4536082,11.1612903 L89.4536082,18.8548387 L89.5927835,18.8548387 Z M102.814433,17.6935484 C101.979381,18.5645161 101.005155,19 99.7525773,19 C98.5,19 97.5257732,18.5645161 96.6907216,17.6935484 C95.8556701,16.8225806 95.4381443,15.8064516 95.4381443,14.5 C95.4381443,13.1935484 95.8556701,12.1774194 96.6907216,11.3064516 C97.5257732,10.4354839 98.5,10 99.7525773,10 C101.005155,10 101.979381,10.4354839 102.814433,11.3064516 C103.649485,12.1774194 104.06701,13.1935484 104.06701,14.5 C104.06701,15.8064516 103.649485,16.8225806 102.814433,17.6935484 Z M97.5257732,16.9677419 C98.0824742,17.5483871 98.9175258,17.983871 99.7525773,17.983871 C100.587629,17.983871 101.42268,17.6935484 101.979381,16.9677419 C102.536082,16.3870968 102.953608,15.516129 102.953608,14.5 C102.953608,13.483871 102.675258,12.6129032 101.979381,12.0322581 C101.42268,11.4516129 100.587629,11.016129 99.7525773,11.016129 C98.9175258,11.016129 98.0824742,11.3064516 97.5257732,12.0322581 C96.9690722,12.6129032 96.5515464,13.483871 96.5515464,14.5 C96.5515464,15.516129 96.8298969,16.3870968 97.5257732,16.9677419 Z M105.597938,18.8548387 L105.597938,10.1451613 L106.850515,10.1451613 L110.886598,16.9677419 L110.886598,10.1451613 L112,10.1451613 L112,18.8548387 L110.886598,18.8548387 L106.572165,11.7419355 L106.572165,18.8548387 L105.597938,18.8548387 Z" id="Shape" stroke="#FFFFFF" stroke-width="0.2" fill="#FFFFFF"></path>
                <path d="M94.6595745,30.6745562 C91.3120567,30.6745562 88.6619385,33.2307692 88.6619385,36.7810651 C88.6619385,40.1893491 91.3120567,42.887574 94.6595745,42.887574 C98.0070922,42.887574 100.65721,40.3313609 100.65721,36.7810651 C100.65721,33.0887574 98.0070922,30.6745562 94.6595745,30.6745562 Z M94.6595745,40.3313609 C92.8463357,40.3313609 91.3120567,38.7692308 91.3120567,36.6390533 C91.3120567,34.5088757 92.8463357,32.9467456 94.6595745,32.9467456 C96.4728132,32.9467456 98.0070922,34.3668639 98.0070922,36.6390533 C98.0070922,38.7692308 96.4728132,40.3313609 94.6595745,40.3313609 Z M81.6879433,30.6745562 C78.3404255,30.6745562 75.6903073,33.2307692 75.6903073,36.7810651 C75.6903073,40.1893491 78.3404255,42.887574 81.6879433,42.887574 C85.035461,42.887574 87.6855792,40.3313609 87.6855792,36.7810651 C87.6855792,33.0887574 85.035461,30.6745562 81.6879433,30.6745562 Z M81.6879433,40.3313609 C79.8747045,40.3313609 78.3404255,38.7692308 78.3404255,36.6390533 C78.3404255,34.5088757 79.8747045,32.9467456 81.6879433,32.9467456 C83.501182,32.9467456 85.035461,34.3668639 85.035461,36.6390533 C85.035461,38.7692308 83.501182,40.3313609 81.6879433,40.3313609 Z M66.2056738,32.5207101 L66.2056738,35.0769231 L72.2033097,35.0769231 C72.0638298,36.4970414 71.5059102,37.6331361 70.8085106,38.3431953 C69.9716312,39.1952663 68.5768322,40.1893491 66.2056738,40.1893491 C62.4397163,40.1893491 59.6501182,37.2071006 59.6501182,33.3727811 C59.6501182,29.5384615 62.5791962,26.556213 66.2056738,26.556213 C68.1583924,26.556213 69.6926714,27.408284 70.8085106,28.4023669 L72.6217494,26.556213 C71.0874704,25.1360947 69.1347518,24 66.3451537,24 C61.3238771,24 57,28.260355 57,33.3727811 C57,38.4852071 61.3238771,42.7455621 66.3451537,42.7455621 C69.1347518,42.7455621 71.0874704,41.8934911 72.7612293,40.0473373 C74.4349882,38.3431953 74.9929078,35.9289941 74.9929078,34.0828402 C74.9929078,33.5147929 74.9929078,32.9467456 74.8534279,32.5207101 L66.2056738,32.5207101 Z M129.529551,34.5088757 C128.971631,33.0887574 127.576832,30.6745562 124.508274,30.6745562 C121.439716,30.6745562 118.929078,33.0887574 118.929078,36.7810651 C118.929078,40.1893491 121.439716,42.887574 124.787234,42.887574 C127.437352,42.887574 129.111111,41.183432 129.669031,40.1893491 L127.716312,38.7692308 C127.018913,39.7633136 126.182033,40.4733728 124.787234,40.4733728 C123.392435,40.4733728 122.555556,39.9053254 121.858156,38.6272189 L129.808511,35.2189349 L129.529551,34.5088757 Z M121.439716,36.4970414 C121.439716,34.2248521 123.252955,32.9467456 124.508274,32.9467456 C125.484634,32.9467456 126.460993,33.5147929 126.739953,34.2248521 L121.439716,36.4970414 Z M114.884161,42.3195266 L117.534279,42.3195266 L117.534279,24.5680473 L114.884161,24.5680473 L114.884161,42.3195266 Z M110.699764,31.9526627 C110.002364,31.2426036 108.886525,30.5325444 107.491726,30.5325444 C104.562648,30.5325444 101.77305,33.2307692 101.77305,36.6390533 C101.77305,40.0473373 104.423168,42.6035503 107.491726,42.6035503 C108.886525,42.6035503 110.002364,41.8934911 110.560284,41.183432 L110.699764,41.183432 L110.699764,42.035503 C110.699764,44.3076923 109.444444,45.5857988 107.491726,45.5857988 C105.957447,45.5857988 104.841608,44.4497041 104.562648,43.4556213 L102.330969,44.4497041 C103.028369,46.0118343 104.702128,48 107.631206,48 C110.699764,48 113.210402,46.1538462 113.210402,41.7514793 L113.210402,30.9585799 L110.699764,30.9585799 L110.699764,31.9526627 Z M107.631206,40.3313609 C105.817967,40.3313609 104.283688,38.7692308 104.283688,36.6390533 C104.283688,34.5088757 105.817967,32.9467456 107.631206,32.9467456 C109.444444,32.9467456 110.839243,34.5088757 110.839243,36.6390533 C110.839243,38.7692308 109.444444,40.3313609 107.631206,40.3313609 Z M141.664303,24.5680473 L135.387707,24.5680473 L135.387707,42.3195266 L138.037825,42.3195266 L138.037825,35.6449704 L141.664303,35.6449704 C144.593381,35.6449704 147.382979,33.5147929 147.382979,30.1065089 C147.382979,26.6982249 144.593381,24.5680473 141.664303,24.5680473 Z M141.803783,33.0887574 L138.037825,33.0887574 L138.037825,26.9822485 L141.803783,26.9822485 C143.756501,26.9822485 144.87234,28.6863905 144.87234,29.964497 C144.732861,31.5266272 143.617021,33.0887574 141.803783,33.0887574 Z M157.843972,30.5325444 C155.891253,30.5325444 153.938534,31.3846154 153.241135,33.2307692 L155.612293,34.2248521 C156.170213,33.2307692 157.007092,32.9467456 157.983452,32.9467456 C159.378251,32.9467456 160.63357,33.7988166 160.77305,35.2189349 L160.77305,35.3609467 C160.35461,35.0769231 159.238771,34.6508876 158.122931,34.6508876 C155.612293,34.6508876 153.101655,36.0710059 153.101655,38.6272189 C153.101655,41.0414201 155.193853,42.6035503 157.425532,42.6035503 C159.238771,42.6035503 160.07565,41.7514793 160.77305,40.8994083 L160.91253,40.8994083 L160.91253,42.3195266 L163.423168,42.3195266 L163.423168,35.5029586 C163.144208,32.3786982 160.77305,30.5325444 157.843972,30.5325444 Z M157.565012,40.3313609 C156.728132,40.3313609 155.472813,39.9053254 155.472813,38.7692308 C155.472813,37.3491124 157.007092,36.9230769 158.262411,36.9230769 C159.378251,36.9230769 159.93617,37.2071006 160.63357,37.4911243 C160.35461,39.1952663 158.959811,40.3313609 157.565012,40.3313609 Z M172.210402,30.9585799 L169.281324,38.6272189 L169.141844,38.6272189 L166.073286,30.9585799 L163.283688,30.9585799 L167.886525,41.7514793 L165.236407,47.7159763 L167.886525,47.7159763 L175,30.9585799 L172.210402,30.9585799 Z M148.777778,42.3195266 L151.427896,42.3195266 L151.427896,24.5680473 L148.777778,24.5680473 L148.777778,42.3195266 Z" id="Shape" fill="#FFFFFF"></path>
                <g id="Group" transform="translate(14.000000, 10.000000)">
                    <path d="M0.55,0.692307692 C0.1375,1.10769231 0,1.8 0,2.63076923 L0,33.2307692 C0,34.0615385 0.275,34.7538462 0.6875,35.1692308 L0.825,35.3076923 L17.875,18.1384615 L17.875,17.8615385 L0.55,0.692307692 Z" id="Shape" fill="url(#linearGradient-1)"></path>
                    <path d="M23.375,23.9538462 L17.7375,18.2769231 L17.7375,17.8615385 L23.375,12.1846154 L23.5125,12.3230769 L30.25,16.2 C32.175,17.3076923 32.175,19.1076923 30.25,20.2153846 L23.375,23.9538462 Z" id="Shape" fill="url(#linearGradient-2)"></path>
                    <path d="M23.5125,23.8153846 L17.7375,18 L0.55,35.3076923 C1.2375,36 2.2,36 3.4375,35.4461538 L23.5125,23.8153846" id="Shape" fill="url(#linearGradient-3)"></path>
                    <path d="M23.5125,12.1846154 L3.4375,0.692307692 C2.2,-4.71844785e-16 1.2375,0.138461538 0.55,0.830769231 L17.7375,18 L23.5125,12.1846154 Z" id="Shape" fill="url(#linearGradient-4)"></path>
                    <path d="M23.375,23.6769231 L3.4375,35.0307692 C2.3375,35.7230769 1.375,35.5846154 0.6875,35.0307692 L0.55,35.1692308 L0.6875,35.3076923 C1.375,35.8615385 2.3375,36 3.4375,35.3076923 L23.375,23.6769231 Z" id="Shape" fill="#000000" opacity="0.2"></path>
                    <path d="M0.55,35.0307692 C0.1375,34.6153846 0,33.9230769 0,33.0923077 L0,33.2307692 C0,34.0615385 0.275,34.7538462 0.6875,35.1692308 L0.6875,35.0307692 L0.55,35.0307692 Z M30.25,19.8 L23.375,23.6769231 L23.5125,23.8153846 L30.25,19.9384615 C31.2125,19.3846154 31.625,18.6923077 31.625,18 C31.625,18.6923077 31.075,19.2461538 30.25,19.8 Z" id="Shape" fill="#000000" opacity="0.12"></path>
                    <path d="M3.4375,0.830769231 L30.25,16.2 C31.075,16.7538462 31.625,17.3076923 31.625,18 C31.625,17.3076923 31.2125,16.6153846 30.25,16.0615385 L3.4375,0.692307692 C1.5125,-0.415384615 0,0.415384615 0,2.63076923 L0,2.76923077 C0,0.692307692 1.5125,-0.276923077 3.4375,0.830769231 Z" id="Shape" fill="#FFFFFF" opacity="0.25"></path>
                </g>
            </g>
        </g>
    </g>
</svg>