<?xml version="1.0" encoding="UTF-8"?>
<svg width="16px" height="16px" viewBox="0 0 16 16" version="1.1" xmlns="http://www.w3.org/2000/svg" xmlns:xlink="http://www.w3.org/1999/xlink">
    <!-- Generator: Sketch 52.5 (67469) - http://www.bohemiancoding.com/sketch -->
    <title>Group 15</title>
    <desc>Created with Sketch.</desc>
    <g id="User's-View" stroke="none" stroke-width="1" fill="none" fill-rule="evenodd">
        <g id="00.10.10" transform="translate(-1784.000000, -753.000000)" fill="#007AFF">
            <g id="Group-15" transform="translate(1784.000000, 753.000000)">
                <g id="Group-14" transform="translate(7.272727, 3.300000)">
                    <path d="M0.64944,2.99161095 C0.285430701,2.99755705 -0.00524587463,3.31046976 -0.0002508,3.6910017 L-0.0002508,8.52057188 C-0.0036169911,8.76938851 0.121436895,9.00082527 0.327025281,9.1262605 C0.532613666,9.25169572 0.786884734,9.25169572 0.992473119,9.1262605 C1.1980615,9.00082527 1.32311539,8.76938851 1.3197492,8.52057188 L1.3197492,3.6910017 C1.3221971,3.50451078 1.252322,3.32492687 1.12604527,3.193169 C0.999768546,3.06141113 0.827846798,2.9887028 0.6494532,2.99161095 L0.64944,2.99161095 Z" id="Path"></path>
                    <circle id="Oval" cx="0.65" cy="1.15" r="1"></circle>
                </g>
                <g id="Group-2" fill-rule="nonzero">
                    <path d="M7.97575431,15.9515086 C3.5636349,15.9515086 0,12.3878737 0,7.97575431 C0,3.5636349 3.5636349,0 7.97575431,0 C12.3878737,0 15.9515086,3.5636349 15.9515086,7.97575431 C15.9515086,12.3878737 12.3878737,15.9515086 7.97575431,15.9515086 Z M7.97575431,0.678787601 C3.95393778,0.678787601 0.678787601,3.95393778 0.678787601,7.97575431 C0.678787601,11.9975708 3.95393778,15.272721 7.97575431,15.272721 C11.9975708,15.272721 15.272721,11.9975708 15.272721,7.97575431 C15.272721,3.95393778 11.9975708,0.678787601 7.97575431,0.678787601 Z" id="Shape"></path>
                </g>
            </g>
        </g>
    </g>
</svg>