<?xml version="1.0" encoding="UTF-8"?>
<svg width="12px" height="14px" viewBox="0 0 12 14" version="1.1" xmlns="http://www.w3.org/2000/svg" xmlns:xlink="http://www.w3.org/1999/xlink">
    <!-- Generator: Sketch 52.5 (67469) - http://www.bohemiancoding.com/sketch -->
    <title>Shape</title>
    <desc>Created with Sketch.</desc>
    <g id="User's-View" stroke="none" stroke-width="1" fill="none" fill-rule="evenodd">
        <g id="00.10.00" transform="translate(-1884.000000, -37.000000)" fill="#233539" fill-rule="nonzero">
            <g id="Group-3" transform="translate(1728.000000, 24.000000)">
                <path d="M156.875437,14.3552632 L156.875437,25.6447368 L160.61793,25.6447368 C160.858675,25.6447368 161.055648,25.8371711 161.055648,26.0723684 C161.055648,26.3075658 160.858675,26.5 160.61793,26.5 L156.437718,26.5 C156.196973,26.5 156,26.3075658 156,26.0723684 L156,13.9276316 C156,13.6924342 156.196973,13.5 156.437718,13.5 L160.61793,13.5 C160.858675,13.5 161.055648,13.6924342 161.055648,13.9276316 C161.055648,14.1628289 160.858675,14.3552632 160.61793,14.3552632 L156.875437,14.3552632 Z M167.599539,19.7006579 L165.213973,17.3486842 C165.038886,17.1776316 164.776255,17.1776316 164.601167,17.3486842 C164.42608,17.5197368 164.42608,17.7763158 164.601167,17.9473684 L166.242612,19.5723684 L159.567405,19.5723684 C159.32666,19.5723684 159.129687,19.7648026 159.129687,20 C159.129687,20.2351974 159.32666,20.4276316 159.567405,20.4276316 L166.242612,20.4276316 L164.601167,22.0526316 C164.42608,22.2236842 164.42608,22.5016447 164.601167,22.6513158 C164.688711,22.7368421 164.798141,22.7796053 164.90757,22.7796053 C165.017,22.7796053 165.12643,22.7368421 165.213973,22.6513158 L167.599539,20.2993421 C167.75274,20.1282895 167.75274,19.8717105 167.599539,19.7006579 Z" id="Shape"></path>
            </g>
        </g>
    </g>
</svg>