<?xml version="1.0" encoding="UTF-8"?>
<svg width="168px" height="32px" viewBox="0 0 168 32" version="1.1" xmlns="http://www.w3.org/2000/svg" xmlns:xlink="http://www.w3.org/1999/xlink">
    <!-- Generator: Sketch 50.2 (55047) - http://www.bohemiancoding.com/sketch -->
    <title>Logo</title>
    <desc>Created with Sketch.</desc>
    <defs>
        <polygon id="path-1" points="0.848147524 0.158171429 23.4922 0.158171429 23.4922 13.0936686 0.848147524 13.0936686"></polygon>
    </defs>
    <g id="Main" stroke="none" stroke-width="1" fill="none" fill-rule="evenodd">
        <g transform="translate(-103.000000, -36.000000)" id="Logo">
            <g transform="translate(104.000000, 36.000000)">
                <g id="Group-23" transform="translate(11.960000, 0.756389)">
                    <mask id="mask-2" fill="white">
                        <use xlink:href="#path-1"></use>
                    </mask>
                    <g id="Clip-22"></g>
                    <path d="M23.4922,13.0936686 C23.49036,12.8714971 23.4922,12.65024 23.48944,12.4280686 C23.47288,10.8536686 23.34776,9.26464 23.07728,7.71218286 C22.356,3.57046857 20.1434,1.25732571 15.97672,0.529554286 C11.28748,-0.288731429 6.6562,0.33664 2.0884,1.50418286 C1.02764,1.77572571 0.7176,2.43584 0.89516,3.40772571 C1.11504,4.62464 1.33768,5.84064 1.5318,7.06212571 C1.7342,8.33481143 2.39108,8.59081143 3.70392,8.33755429 C6.11524,7.87218286 8.56612,7.49001143 11.01792,7.34189714 C14.25632,7.14624 15.70992,8.84864 15.26464,11.7112686 C12.2728,11.7112686 9.2874,11.4552686 6.37008,11.77344 C4.89624,11.9325257 3.54384,12.4061257 2.37912,13.0936686 L3.23196,13.0936686 L23.4922,13.0936686 Z" id="Fill-21" fill="#15489F" mask="url(#mask-2)"></path>
                </g>
                <polygon id="Fill-24" fill="#007DFF" points="12.4798 18.1141029 13.6896 18.1141029 13.6896 16.9118171 12.4798 16.9118171"></polygon>
                <polygon id="Fill-26" fill="#007DFF" points="29.42804 18.1141029 30.63876 18.1141029 30.63876 16.9118171 29.42804 16.9118171"></polygon>
                <polygon id="Fill-27" fill="#007DFF" points="31.84856 20.5205029 33.05928 20.5205029 33.05928 19.3182171 31.84856 19.3182171"></polygon>
                <polygon id="Fill-28" fill="#007DFF" points="34.27 26.5365029 35.4798 26.5365029 35.4798 25.3333029 34.27 25.3333029"></polygon>
                <polygon id="Fill-29" fill="#007DFF" points="30.63876 22.9269029 31.84856 22.9269029 31.84856 21.7246171 30.63876 21.7246171"></polygon>
                <polygon id="Fill-30" fill="#007DFF" points="33.0602 24.1301029 34.27 24.1301029 34.27 22.9269029 33.0602 22.9269029"></polygon>
                <polygon id="Fill-31" fill="#007DFF" points="14.90032 19.3182171 16.11104 19.3182171 16.11104 18.1150171 14.90032 18.1150171"></polygon>
                <polygon id="Fill-32" fill="#007DFF" points="14.90032 24.1301029 16.11104 24.1301029 16.11104 22.9269029 14.90032 22.9269029"></polygon>
                <polygon id="Fill-33" fill="#007DFF" points="17.32084 22.9269029 18.53156 22.9269029 18.53156 21.7246171 17.32084 21.7246171"></polygon>
                <polygon id="Fill-34" fill="#007DFF" points="18.53248 27.7397029 19.74228 27.7397029 19.74228 26.5374171 18.53248 26.5374171"></polygon>
                <polygon id="Fill-35" fill="#007DFF" points="19.74228 24.1301029 20.953 24.1301029 20.953 22.9269029 19.74228 22.9269029"></polygon>
                <polygon id="Fill-36" fill="#007DFF" points="22.16372 27.7397029 23.37444 27.7397029 23.37444 26.5374171 22.16372 26.5374171"></polygon>
                <polygon id="Fill-37" fill="#144886" points="10.05836 16.9118171 11.26816 16.9118171 11.26816 15.7086171 10.05836 15.7086171"></polygon>
                <polygon id="Fill-38" fill="#144886" points="10.05836 24.1301029 11.26816 24.1301029 11.26816 22.9269029 10.05836 22.9269029"></polygon>
                <polygon id="Fill-39" fill="#144886" points="12.4798 22.9269029 13.6896 22.9269029 13.6896 21.7246171 12.4798 21.7246171"></polygon>
                <polygon id="Fill-40" fill="#144886" points="29.42804 21.7237029 30.63876 21.7237029 30.63876 20.5205029 29.42804 20.5205029"></polygon>
                <polygon id="Fill-41" fill="#144886" points="29.42804 20.5205029 30.63876 20.5205029 30.63876 19.3182171 29.42804 19.3182171"></polygon>
                <polygon id="Fill-42" fill="#144886" points="30.63876 19.3182171 31.84856 19.3182171 31.84856 18.1150171 30.63876 18.1150171"></polygon>
                <polygon id="Fill-43" fill="#144886" points="31.84856 21.7237029 33.05928 21.7237029 33.05928 20.5205029 31.84856 20.5205029"></polygon>
                <polygon id="Fill-44" fill="#144886" points="31.84856 16.9118171 33.05928 16.9118171 33.05928 15.7086171 31.84856 15.7086171"></polygon>
                <polygon id="Fill-45" fill="#144886" points="34.27 22.9269029 35.4798 22.9269029 35.4798 21.7246171 34.27 21.7246171"></polygon>
                <polygon id="Fill-46" fill="#144886" points="28.21732 16.9118171 29.42712 16.9118171 29.42712 15.7086171 28.21732 15.7086171"></polygon>
                <polygon id="Fill-47" fill="#144886" points="18.53248 16.9118171 19.74228 16.9118171 19.74228 15.7086171 18.53248 15.7086171"></polygon>
                <polygon id="Fill-48" fill="#144886" points="31.84856 30.1451886 33.05928 30.1451886 33.05928 28.9429029 31.84856 28.9429029"></polygon>
                <polygon id="Fill-49" fill="#144886" points="13.6896 20.5205029 14.8994 20.5205029 14.8994 19.3182171 13.6896 19.3182171"></polygon>
                <polygon id="Fill-50" fill="#144886" points="14.90032 28.9429029 16.11104 28.9429029 16.11104 27.7397029 14.90032 27.7397029"></polygon>
                <polygon id="Fill-51" fill="#144886" points="14.90032 16.9118171 16.11104 16.9118171 16.11104 15.7086171 14.90032 15.7086171"></polygon>
                <polygon id="Fill-52" fill="#144886" points="14.90032 18.1141029 16.11104 18.1141029 16.11104 16.9118171 14.90032 16.9118171"></polygon>
                <polygon id="Fill-53" fill="#144886" points="18.53248 24.1301029 19.74228 24.1301029 19.74228 22.9269029 18.53248 22.9269029"></polygon>
                <polygon id="Fill-54" fill="#144886" points="24.58516 24.1301029 25.79588 24.1301029 25.79588 22.9269029 24.58516 22.9269029"></polygon>
                <polygon id="Fill-55" fill="#1C368E" points="10.05836 19.3182171 11.26816 19.3182171 11.26816 18.1150171 10.05836 18.1150171"></polygon>
                <polygon id="Fill-56" fill="#1C368E" points="11.26816 18.1141029 12.47888 18.1141029 12.47888 16.9118171 11.26816 16.9118171"></polygon>
                <polygon id="Fill-57" fill="#1C368E" points="11.26816 24.1301029 12.47888 24.1301029 12.47888 22.9269029 11.26816 22.9269029"></polygon>
                <polygon id="Fill-58" fill="#1C368E" points="11.26816 16.9118171 12.47888 16.9118171 12.47888 15.7086171 11.26816 15.7086171"></polygon>
                <polygon id="Fill-59" fill="#1C368E" points="11.26816 20.5205029 12.47888 20.5205029 12.47888 19.3182171 11.26816 19.3182171"></polygon>
                <polygon id="Fill-60" fill="#1C368E" points="11.26816 25.3333029 12.47888 25.3333029 12.47888 24.1310171 11.26816 24.1310171"></polygon>
                <polygon id="Fill-61" fill="#1C368E" points="27.0066 20.5205029 28.21732 20.5205029 28.21732 19.3182171 27.0066 19.3182171"></polygon>
                <polygon id="Fill-62" fill="#1C368E" points="27.0066 24.1301029 28.21732 24.1301029 28.21732 22.9269029 27.0066 22.9269029"></polygon>
                <polygon id="Fill-63" fill="#1C368E" points="27.0066 26.5365029 28.21732 26.5365029 28.21732 25.3333029 27.0066 25.3333029"></polygon>
                <polygon id="Fill-64" fill="#1C368E" points="29.42804 24.1301029 30.63876 24.1301029 30.63876 22.9269029 29.42804 22.9269029"></polygon>
                <polygon id="Fill-65" fill="#1C368E" points="28.21732 19.3182171 29.42712 19.3182171 29.42712 18.1150171 28.21732 18.1150171"></polygon>
                <polygon id="Fill-66" fill="#1C368E" points="31.84856 15.7077029 33.05928 15.7077029 33.05928 14.5054171 31.84856 14.5054171"></polygon>
                <polygon id="Fill-67" fill="#1C368E" points="33.0602 19.3182171 34.27 19.3182171 34.27 18.1150171 33.0602 18.1150171"></polygon>
                <polygon id="Fill-68" fill="#1C368E" points="34.27 15.7077029 35.4798 15.7077029 35.4798 14.5054171 34.27 14.5054171"></polygon>
                <polygon id="Fill-69" fill="#1C368E" points="34.27 18.1141029 35.4798 18.1141029 35.4798 16.9118171 34.27 16.9118171"></polygon>
                <polygon id="Fill-70" fill="#1C368E" points="34.27 25.3333029 35.4798 25.3333029 35.4798 24.1310171 34.27 24.1310171"></polygon>
                <polygon id="Fill-71" fill="#1C368E" points="28.21732 15.7077029 29.42712 15.7077029 29.42712 14.5054171 28.21732 14.5054171"></polygon>
                <polygon id="Fill-72" fill="#1C368E" points="23.37536 15.7077029 24.58516 15.7077029 24.58516 14.5054171 23.37536 14.5054171"></polygon>
                <polygon id="Fill-73" fill="#1C368E" points="18.53248 15.7077029 19.74228 15.7077029 19.74228 14.5054171 18.53248 14.5054171"></polygon>
                <polygon id="Fill-74" fill="#1C368E" points="27.0066 16.9118171 28.21732 16.9118171 28.21732 15.7086171 27.0066 15.7086171"></polygon>
                <polygon id="Fill-75" fill="#1C368E" points="30.63876 21.7237029 31.84856 21.7237029 31.84856 20.5205029 30.63876 20.5205029"></polygon>
                <polygon id="Fill-76" fill="#1C368E" points="30.63876 18.1141029 31.84856 18.1141029 31.84856 16.9118171 30.63876 16.9118171"></polygon>
                <polygon id="Fill-77" fill="#1C368E" points="29.42804 27.7397029 30.63876 27.7397029 30.63876 26.5374171 29.42804 26.5374171"></polygon>
                <polygon id="Fill-78" fill="#1C368E" points="33.0602 28.9429029 34.27 28.9429029 34.27 27.7397029 33.0602 27.7397029"></polygon>
                <polygon id="Fill-79" fill="#1C368E" points="13.6896 19.3182171 14.8994 19.3182171 14.8994 18.1150171 13.6896 18.1150171"></polygon>
                <polygon id="Fill-80" fill="#1C368E" points="13.6896 22.9269029 14.8994 22.9269029 14.8994 21.7246171 13.6896 21.7246171"></polygon>
                <polygon id="Fill-81" fill="#1C368E" points="13.6896 15.7077029 14.8994 15.7077029 14.8994 14.5054171 13.6896 14.5054171"></polygon>
                <polygon id="Fill-82" fill="#1C368E" points="14.90032 20.5205029 16.11104 20.5205029 16.11104 19.3182171 14.90032 19.3182171"></polygon>
                <polygon id="Fill-83" fill="#1C368E" points="14.90032 27.7397029 16.11104 27.7397029 16.11104 26.5374171 14.90032 26.5374171"></polygon>
                <polygon id="Fill-84" fill="#1C368E" points="16.11104 24.1301029 17.32084 24.1301029 17.32084 22.9269029 16.11104 22.9269029"></polygon>
                <polygon id="Fill-85" fill="#1C368E" points="16.11104 16.9118171 17.32084 16.9118171 17.32084 15.7086171 16.11104 15.7086171"></polygon>
                <polygon id="Fill-86" fill="#1C368E" points="17.32084 20.5205029 18.53156 20.5205029 18.53156 19.3182171 17.32084 19.3182171"></polygon>
                <polygon id="Fill-87" fill="#1C368E" points="17.32084 26.5365029 18.53156 26.5365029 18.53156 25.3333029 17.32084 25.3333029"></polygon>
                <polygon id="Fill-88" fill="#1C368E" points="17.32084 21.7237029 18.53156 21.7237029 18.53156 20.5205029 17.32084 20.5205029"></polygon>
                <polygon id="Fill-89" fill="#1C368E" points="18.53248 30.1451886 19.74228 30.1451886 19.74228 28.9429029 18.53248 28.9429029"></polygon>
                <polygon id="Fill-90" fill="#1C368E" points="18.53248 22.9269029 19.74228 22.9269029 19.74228 21.7246171 18.53248 21.7246171"></polygon>
                <polygon id="Fill-91" fill="#1C368E" points="20.95392 24.1301029 22.16372 24.1301029 22.16372 22.9269029 20.95392 22.9269029"></polygon>
                <polygon id="Fill-92" fill="#1C368E" points="22.16372 26.5365029 23.37444 26.5365029 23.37444 25.3333029 22.16372 25.3333029"></polygon>
                <polygon id="Fill-93" fill="#1C368E" points="24.58516 25.3333029 25.79588 25.3333029 25.79588 24.1310171 24.58516 24.1310171"></polygon>
                <polygon id="Fill-94" fill="#1E2D46" points="11.26816 15.7077029 12.47888 15.7077029 12.47888 14.5054171 11.26816 14.5054171"></polygon>
                <polygon id="Fill-95" fill="#1E2D46" points="12.4798 25.3333029 13.6896 25.3333029 13.6896 24.1310171 12.4798 24.1310171"></polygon>
                <polygon id="Fill-96" fill="#1E2D46" points="27.0066 22.9269029 28.21732 22.9269029 28.21732 21.7246171 27.0066 21.7246171"></polygon>
                <polygon id="Fill-97" fill="#1E2D46" points="27.0066 25.3333029 28.21732 25.3333029 28.21732 24.1310171 27.0066 24.1310171"></polygon>
                <polygon id="Fill-98" fill="#1E2D46" points="28.21732 20.5205029 29.42712 20.5205029 29.42712 19.3182171 28.21732 19.3182171"></polygon>
                <polygon id="Fill-99" fill="#1E2D46" points="30.63876 16.9118171 31.84856 16.9118171 31.84856 15.7086171 30.63876 15.7086171"></polygon>
                <polygon id="Fill-100" fill="#1E2D46" points="33.0602 18.1141029 34.27 18.1141029 34.27 16.9118171 33.0602 16.9118171"></polygon>
                <polygon id="Fill-101" fill="#1E2D46" points="27.0066 15.7077029 28.21732 15.7077029 28.21732 14.5054171 27.0066 14.5054171"></polygon>
                <polygon id="Fill-102" fill="#1E2D46" points="19.74228 15.7077029 20.953 15.7077029 20.953 14.5054171 19.74228 14.5054171"></polygon>
                <polygon id="Fill-103" fill="#1E2D46" points="25.79588 16.9118171 27.00568 16.9118171 27.00568 15.7086171 25.79588 15.7086171"></polygon>
                <polygon id="Fill-104" fill="#1E2D46" points="30.63876 26.5365029 31.84856 26.5365029 31.84856 25.3333029 30.63876 25.3333029"></polygon>
                <polygon id="Fill-105" fill="#1E2D46" points="31.84856 22.9269029 33.05928 22.9269029 33.05928 21.7246171 31.84856 21.7246171"></polygon>
                <polygon id="Fill-106" fill="#1E2D46" points="31.84856 25.3333029 33.05928 25.3333029 33.05928 24.1310171 31.84856 24.1310171"></polygon>
                <polygon id="Fill-107" fill="#1E2D46" points="12.4798 20.5205029 13.6896 20.5205029 13.6896 19.3182171 12.4798 19.3182171"></polygon>
                <polygon id="Fill-108" fill="#1E2D46" points="14.90032 15.7077029 16.11104 15.7077029 16.11104 14.5054171 14.90032 14.5054171"></polygon>
                <polygon id="Fill-109" fill="#1E2D46" points="14.90032 21.7237029 16.11104 21.7237029 16.11104 20.5205029 14.90032 20.5205029"></polygon>
                <polygon id="Fill-110" fill="#1E2D46" points="16.11104 27.7397029 17.32084 27.7397029 17.32084 26.5374171 16.11104 26.5374171"></polygon>
                <polygon id="Fill-111" fill="#1E2D46" points="16.11104 18.1141029 17.32084 18.1141029 17.32084 16.9118171 16.11104 16.9118171"></polygon>
                <polygon id="Fill-112" fill="#1E2D46" points="17.32084 15.7077029 18.53156 15.7077029 18.53156 14.5054171 17.32084 14.5054171"></polygon>
                <polygon id="Fill-113" fill="#1E2D46" points="20.95392 26.5365029 22.16372 26.5365029 22.16372 25.3333029 20.95392 25.3333029"></polygon>
                <polygon id="Fill-114" fill="#1E2D46" points="25.79588 27.7397029 27.00568 27.7397029 27.00568 26.5374171 25.79588 26.5374171"></polygon>
                <polygon id="Fill-115" fill="#00AED9" points="10.05836 21.7237029 11.26816 21.7237029 11.26816 20.5205029 10.05836 20.5205029"></polygon>
                <polygon id="Fill-116" fill="#00AED9" points="11.26816 26.5365029 12.47888 26.5365029 12.47888 25.3333029 11.26816 25.3333029"></polygon>
                <polygon id="Fill-117" fill="#00AED9" points="29.42804 26.5365029 30.63876 26.5365029 30.63876 25.3333029 29.42804 25.3333029"></polygon>
                <polygon id="Fill-118" fill="#00AED9" points="29.42804 15.7077029 30.63876 15.7077029 30.63876 14.5054171 29.42804 14.5054171"></polygon>
                <polygon id="Fill-119" fill="#00AED9" points="29.42804 19.3182171 30.63876 19.3182171 30.63876 18.1150171 29.42804 18.1150171"></polygon>
                <polygon id="Fill-120" fill="#00AED9" points="33.0602 21.7237029 34.27 21.7237029 34.27 20.5205029 33.0602 20.5205029"></polygon>
                <polygon id="Fill-121" fill="#00AED9" points="34.27 20.5205029 35.4798 20.5205029 35.4798 19.3182171 34.27 19.3182171"></polygon>
                <polygon id="Fill-122" fill="#00AED9" points="27.0066 18.1141029 28.21732 18.1141029 28.21732 16.9118171 27.0066 16.9118171"></polygon>
                <polygon id="Fill-123" fill="#00AED9" points="12.4798 16.9118171 13.6896 16.9118171 13.6896 15.7086171 12.4798 15.7086171"></polygon>
                <polygon id="Fill-124" fill="#00AED9" points="17.32084 25.3333029 18.53156 25.3333029 18.53156 24.1310171 17.32084 24.1310171"></polygon>
                <polygon id="Fill-125" fill="#00AED9" points="22.16372 24.1301029 23.37444 24.1301029 23.37444 22.9269029 22.16372 22.9269029"></polygon>
                <polygon id="Fill-126" fill="#00AED9" points="24.58516 28.9429029 25.79588 28.9429029 25.79588 27.7397029 24.58516 27.7397029"></polygon>
                <polygon id="Fill-127" fill="#085CBB" points="10.05836 18.1141029 11.26816 18.1141029 11.26816 16.9118171 10.05836 16.9118171"></polygon>
                <polygon id="Fill-128" fill="#085CBB" points="11.26816 21.7237029 12.47888 21.7237029 12.47888 20.5205029 11.26816 20.5205029"></polygon>
                <polygon id="Fill-129" fill="#085CBB" points="12.4798 27.7397029 13.6896 27.7397029 13.6896 26.5374171 12.4798 26.5374171"></polygon>
                <polygon id="Fill-130" fill="#085CBB" points="27.0066 21.7237029 28.21732 21.7237029 28.21732 20.5205029 27.0066 20.5205029"></polygon>
                <polygon id="Fill-131" fill="#085CBB" points="28.21732 25.3333029 29.42712 25.3333029 29.42712 24.1310171 28.21732 24.1310171"></polygon>
                <polygon id="Fill-132" fill="#085CBB" points="31.84856 18.1141029 33.05928 18.1141029 33.05928 16.9118171 31.84856 16.9118171"></polygon>
                <polygon id="Fill-133" fill="#085CBB" points="33.0602 15.7077029 34.27 15.7077029 34.27 14.5054171 33.0602 14.5054171"></polygon>
                <polygon id="Fill-134" fill="#085CBB" points="34.27 19.3182171 35.4798 19.3182171 35.4798 18.1150171 34.27 18.1150171"></polygon>
                <polygon id="Fill-135" fill="#085CBB" points="34.27 28.9429029 35.4798 28.9429029 35.4798 27.7397029 34.27 27.7397029"></polygon>
                <polygon id="Fill-136" fill="#085CBB" points="28.21732 18.1141029 29.42712 18.1141029 29.42712 16.9118171 28.21732 16.9118171"></polygon>
                <polygon id="Fill-137" fill="#085CBB" points="25.79588 15.7077029 27.00568 15.7077029 27.00568 14.5054171 25.79588 14.5054171"></polygon>
                <polygon id="Fill-138" fill="#085CBB" points="22.16372 15.7077029 23.37444 15.7077029 23.37444 14.5054171 22.16372 14.5054171"></polygon>
                <polygon id="Fill-139" fill="#085CBB" points="30.63876 28.9429029 31.84856 28.9429029 31.84856 27.7397029 30.63876 27.7397029"></polygon>
                <polygon id="Fill-140" fill="#085CBB" points="12.4798 15.7077029 13.6896 15.7077029 13.6896 14.5054171 12.4798 14.5054171"></polygon>
                <polygon id="Fill-141" fill="#085CBB" points="13.6896 16.9118171 14.8994 16.9118171 14.8994 15.7086171 13.6896 15.7086171"></polygon>
                <polygon id="Fill-142" fill="#085CBB" points="13.6896 26.5365029 14.8994 26.5365029 14.8994 25.3333029 13.6896 25.3333029"></polygon>
                <polygon id="Fill-143" fill="#085CBB" points="16.11104 15.7077029 17.32084 15.7077029 17.32084 14.5054171 16.11104 14.5054171"></polygon>
                <polygon id="Fill-144" fill="#085CBB" points="17.32084 16.9118171 18.53156 16.9118171 18.53156 15.7086171 17.32084 15.7086171"></polygon>
                <polygon id="Fill-145" fill="#085CBB" points="17.32084 18.1141029 18.53156 18.1141029 18.53156 16.9118171 17.32084 16.9118171"></polygon>
                <polygon id="Fill-146" fill="#085CBB" points="22.16372 28.9429029 23.37444 28.9429029 23.37444 27.7397029 22.16372 27.7397029"></polygon>
                <polygon id="Fill-147" fill="#085CBB" points="25.79588 24.1301029 27.00568 24.1301029 27.00568 22.9269029 25.79588 22.9269029"></polygon>
                <polygon id="Fill-148" fill="#15489F" points="28.21732 22.9269029 29.42712 22.9269029 29.42712 21.7246171 28.21732 21.7246171"></polygon>
                <polygon id="Fill-149" fill="#15489F" points="28.21732 24.1301029 29.42712 24.1301029 29.42712 22.9269029 28.21732 22.9269029"></polygon>
                <polygon id="Fill-150" fill="#15489F" points="29.42804 16.9118171 30.63876 16.9118171 30.63876 15.7086171 29.42804 15.7086171"></polygon>
                <polygon id="Fill-151" fill="#15489F" points="30.63876 15.7077029 31.84856 15.7077029 31.84856 14.5054171 30.63876 14.5054171"></polygon>
                <polygon id="Fill-152" fill="#15489F" points="31.84856 19.3182171 33.05928 19.3182171 33.05928 18.1150171 31.84856 18.1150171"></polygon>
                <polygon id="Fill-153" fill="#15489F" points="33.0602 16.9118171 34.27 16.9118171 34.27 15.7086171 33.0602 15.7086171"></polygon>
                <polygon id="Fill-154" fill="#15489F" points="33.0602 20.5205029 34.27 20.5205029 34.27 19.3182171 33.0602 19.3182171"></polygon>
                <polygon id="Fill-155" fill="#15489F" points="34.27 16.9118171 35.4798 16.9118171 35.4798 15.7086171 34.27 15.7086171"></polygon>
                <polygon id="Fill-156" fill="#15489F" points="33.0602 27.7397029 34.27 27.7397029 34.27 26.5374171 33.0602 26.5374171"></polygon>
                <polygon id="Fill-157" fill="#15489F" points="24.58516 15.7077029 25.79588 15.7077029 25.79588 14.5054171 24.58516 14.5054171"></polygon>
                <polygon id="Fill-158" fill="#15489F" points="20.95392 15.7077029 22.16372 15.7077029 22.16372 14.5054171 20.95392 14.5054171"></polygon>
                <polygon id="Fill-159" fill="#15489F" points="31.84856 24.1301029 33.05928 24.1301029 33.05928 22.9269029 31.84856 22.9269029"></polygon>
                <polygon id="Fill-160" fill="#15489F" points="12.4798 21.7237029 13.6896 21.7237029 13.6896 20.5205029 12.4798 20.5205029"></polygon>
                <polygon id="Fill-161" fill="#15489F" points="14.90032 25.3333029 16.11104 25.3333029 16.11104 24.1310171 14.90032 24.1310171"></polygon>
                <polygon id="Fill-162" fill="#15489F" points="16.11104 19.3182171 17.32084 19.3182171 17.32084 18.1150171 16.11104 18.1150171"></polygon>
                <polygon id="Fill-163" fill="#15489F" points="16.11104 20.5205029 17.32084 20.5205029 17.32084 19.3182171 16.11104 19.3182171"></polygon>
                <polygon id="Fill-164" fill="#15489F" points="16.11104 31.3493029 17.32084 31.3493029 17.32084 30.1461029 16.11104 30.1461029"></polygon>
                <polygon id="Fill-165" fill="#15489F" points="18.53248 26.5365029 19.74228 26.5365029 19.74228 25.3333029 18.53248 25.3333029"></polygon>
                <polygon id="Fill-166" fill="#15489F" points="19.74228 25.3333029 20.953 25.3333029 20.953 24.1310171 19.74228 24.1310171"></polygon>
                <polygon id="Fill-167" fill="#15489F" points="23.37536 25.3333029 24.58516 25.3333029 24.58516 24.1310171 23.37536 24.1310171"></polygon>
                <polygon id="Fill-168" fill="#15489F" points="23.37536 26.5365029 24.58516 26.5365029 24.58516 25.3333029 23.37536 25.3333029"></polygon>
                <polygon id="Fill-169" fill="#15489F" points="25.79588 22.9269029 27.00568 22.9269029 27.00568 21.7246171 25.79588 21.7246171"></polygon>
                <path d="M0.401488,14.2116571 L45.136488,14.2116571" id="Stroke-171" stroke="#7AC943" stroke-width="2" stroke-linecap="round"></path>
                <path d="M90.1277203,14.7274667 C90.1277203,15.6536889 90.1526356,16.5808 90.1161525,17.5052444 C90.0992458,17.9390222 90.2700932,18.2128 90.5975508,18.4403556 C91.8308559,19.2954667 93.1647119,19.6003556 94.6320424,19.1808 C96.8939915,18.5328 98.2349661,16.4030222 97.9030593,13.8421333 C97.6886102,12.1861333 96.8939915,10.8554667 95.2958559,10.1665778 C93.6558983,9.4608 92.1387373,9.82524444 90.7328051,10.8305778 C90.3092458,11.1328 90.0734407,11.4945778 90.1117034,12.0696889 C90.171322,12.9523556 90.1277203,13.8412444 90.1277203,14.7274667 M90.1108136,19.5061333 C90.1108136,22.4483556 90.1045847,25.2839111 90.1179322,28.1203556 C90.1197119,28.6056889 89.9915763,28.8510222 89.4532288,28.8439111 C88.916661,28.8376889 88.8508136,28.5425778 88.8508136,28.1168 C88.8552627,21.9683556 88.8534831,15.8199111 88.8552627,9.67057778 C88.8552627,9.3168 88.8009831,8.95946667 89.3535678,8.91946667 C89.9070424,8.87946667 89.9639915,9.19946667 89.9880169,9.60124444 C89.9924661,9.67857778 90.0093729,9.75591111 90.0262797,9.87502222 C90.1286102,9.82791111 90.2193729,9.80213333 90.292339,9.75146667 C92.166322,8.46435556 94.1675508,8.18257778 96.2052627,9.23324444 C98.2064915,10.2652444 99.1007712,12.0768 99.2155593,14.2599111 C99.317,16.2003556 98.7323814,17.9141333 97.2232288,19.2305778 C95.4159831,20.8074667 92.5934407,21.0376889 90.5557288,19.7799111 C90.4427203,19.7088 90.3279322,19.6385778 90.1108136,19.5061333" id="Fill-1" fill="#15489F"></path>
                <path d="M84.1283051,14.5868444 C84.113178,14.3290667 84.1202966,14.0704 84.0784746,13.8197333 C83.8088559,12.1672889 83.0542797,10.8384 81.4490254,10.1610667 C79.7814831,9.45617778 78.2545339,9.8384 76.8450424,10.8819556 C76.4570763,11.1690667 76.2791102,11.5184 76.2888983,12.0330667 C76.3236017,13.7655111 76.3422881,15.4997333 76.2835593,17.2321778 C76.2577542,17.9601778 76.5602966,18.3548444 77.1386864,18.6837333 C78.6861017,19.5646222 80.2619915,19.6348444 81.8040678,18.7610667 C83.4013136,17.8579556 84.0936017,16.3895111 84.1283051,14.5868444 M76.1714407,9.72017778 C77.1413559,9.37351111 78.0498729,8.92995556 79.0091102,8.72728889 C81.6501271,8.16817778 84.5420763,9.80817778 85.2299153,13.0917333 C85.735339,15.5059556 85.2361441,17.6881778 83.2598305,19.3450667 C81.4623729,20.8517333 78.653178,21.0010667 76.6795339,19.7424 C76.5834322,19.6792889 76.4828814,19.6215111 76.274661,19.4944 L76.274661,20.1824 C76.274661,22.8037333 76.269322,25.4250667 76.2791102,28.0481778 C76.2808898,28.5086222 76.2613136,28.8561778 75.6402119,28.8464 C75.0431356,28.8375111 75.0431356,28.4917333 75.0431356,28.0641778 C75.0475847,21.9530667 75.0449153,15.8428444 75.0502542,9.73173333 C75.0502542,9.38595556 74.9087712,8.96106667 75.5289831,8.92017778 C76.1385169,8.88017778 76.1438559,9.24995556 76.1580932,9.66328889 C76.1598729,9.7184 76.1838983,9.77351111 76.1714407,9.72017778" id="Fill-3" fill="#15489F"></path>
                <path d="M130.814864,16.1597333 L130.814864,15.8059556 C130.814864,14.4628444 130.816644,14.4521778 129.501475,14.1784 C128.078636,13.8815111 126.672703,13.8415111 125.413593,14.7206222 C124.519314,15.3455111 124.184737,16.2486222 124.383169,17.3055111 C124.587831,18.3872889 125.241856,19.1064 126.333678,19.3588444 C127.543847,19.6379556 128.624992,19.2388444 129.652746,18.6459556 C130.448254,18.1881778 131.04711,17.6130667 130.818424,16.5721778 C130.789949,16.4406222 130.814864,16.2975111 130.814864,16.1597333 M130.83622,13.3277333 C130.781051,12.7161778 130.768593,12.1259556 130.667153,11.5508444 C130.444695,10.2984 129.723932,9.74195556 128.439017,9.74017778 C127.323169,9.7384 126.253593,9.94551111 125.225839,10.3766222 C124.915288,10.5072889 124.613636,10.6797333 124.408085,10.1926222 C124.220331,9.74728889 124.322661,9.49484444 124.764907,9.32417778 C126.297195,8.72951111 127.867746,8.45217778 129.505924,8.71973333 C130.978593,8.96062222 131.753636,9.81573333 131.902237,11.4290667 C131.984992,12.3277333 131.99122,13.2361778 131.998339,14.1401778 C132.011686,15.9517333 132.001008,17.7641778 132.002788,19.5757333 C132.002788,19.9410667 132.032153,20.2930667 131.497364,20.3250667 C130.970585,20.3561778 130.938551,20.0121778 130.894059,19.6477333 C130.871814,19.4744 130.845119,19.3028444 130.806856,19.0406222 C130.589737,19.2032889 130.426008,19.3312889 130.256051,19.4521778 C129.00139,20.3499556 127.607025,20.7819556 126.078297,20.5037333 C124.347576,20.1872889 123.258424,18.8948444 123.158763,17.1899556 C123.050203,15.3135111 123.949822,13.9295111 125.696559,13.3117333 C127.179907,12.7855111 128.676602,12.8868444 130.173297,13.2504 C130.326347,13.2877333 130.476729,13.3348444 130.62978,13.3712889 C130.661814,13.3792889 130.701856,13.3579556 130.83622,13.3277333" id="Fill-6" fill="#15489F"></path>
                <path d="M69.6373263,14.9375111 C69.6275381,14.7926222 69.5269873,14.5677333 69.4175381,14.5277333 C67.7010551,13.8930667 65.9738941,13.6432889 64.3196992,14.6832889 C63.3471144,15.2939556 63.0543602,16.2424 63.2394449,17.3490667 C63.4049534,18.3428444 64.1648686,19.1321778 65.160589,19.3597333 C66.3280466,19.6255111 67.3727076,19.2584 68.3791059,18.7188444 C69.2484703,18.2512889 69.6373263,17.9410667 69.6373263,16.5295111 M69.6631314,19.0086222 C68.7136822,19.8121778 67.7437669,20.2966222 66.6368178,20.5117333 C65.0146568,20.8255111 63.4343178,20.2548444 62.6085551,19.0272889 C61.7988093,17.8237333 61.7890212,15.9348444 62.6281314,14.7268444 C63.4592331,13.5304 64.7085551,13.0352889 66.089572,13.0006222 C67.2534703,12.9712889 68.4244873,13.1588444 69.6791483,13.2566222 C69.6106314,12.6530667 69.5892754,11.9437333 69.4380042,11.2628444 C69.2102076,10.2397333 68.4832161,9.74995556 67.3362246,9.7384 C66.2025805,9.72862222 65.1089788,9.93484444 64.0616483,10.3784 C63.748428,10.5117333 63.4494449,10.6664 63.2421144,10.1899556 C63.0481314,9.74106667 63.1673686,9.50106667 63.6051653,9.32773333 C65.1739364,8.70906667 66.7889788,8.43706667 68.4618602,8.73573333 C69.7414364,8.96417778 70.4604195,9.7144 70.6819873,11.0157333 C70.7709703,11.5366222 70.8181314,12.0708444 70.8216907,12.5997333 C70.8368178,14.9446222 70.8261398,17.2886222 70.8296992,19.6326222 C70.830589,19.9846222 70.8492754,20.3028444 70.3456314,20.3250667 C69.8339788,20.3464 69.7636822,20.0379556 69.7387669,19.6521778 C69.728089,19.4806222 69.6996144,19.3108444 69.6631314,19.0086222" id="Fill-8" fill="#15489F"></path>
                <path d="M109.456352,16.1953778 L109.456352,15.7820444 C109.456352,14.4567111 109.458131,14.4478222 108.127835,14.1740444 C106.725462,13.8842667 105.346225,13.8531556 104.096013,14.7020444 C103.161691,15.3367111 102.875165,16.2593778 103.045123,17.3331556 C103.208852,18.3624889 103.991013,19.1411556 105.015208,19.3660444 C106.140843,19.6149333 107.149021,19.2593778 108.126945,18.7580444 C109.04703,18.2860444 109.697496,17.6478222 109.459021,16.4896 C109.439445,16.3953778 109.456352,16.2931556 109.456352,16.1953778 M109.471479,19.0256 C108.510462,19.8176 107.52364,20.3171556 106.397114,20.5242667 C104.766055,20.8238222 103.203513,20.2273778 102.394657,18.9776 C101.587581,17.7304889 101.601818,15.8913778 102.472072,14.6816 C103.307623,13.5207111 104.541818,13.0309333 105.903258,13.0024889 C106.931903,12.9811556 107.965886,13.1989333 108.997199,13.3118222 C109.128894,13.3260444 109.258809,13.3518222 109.546225,13.3971556 C109.405631,12.5171556 109.363809,11.6878222 109.127114,10.9162667 C108.845038,9.99182222 108.010377,9.76337778 107.136564,9.74382222 C106.003809,9.71893333 104.911097,9.93582222 103.867326,10.3838222 C103.546987,10.5207111 103.249784,10.6549333 103.055801,10.1767111 C102.868936,9.71893333 103.00775,9.48248889 103.439318,9.31715556 C104.992072,8.71804444 106.586648,8.43893333 108.241733,8.73048889 C109.715292,8.99004444 110.522369,9.90204444 110.577538,11.6256 C110.662072,14.3616 110.631818,17.1029333 110.61847,19.8416 C110.617581,19.9998222 110.35953,20.2353778 110.173555,20.2984889 C109.88347,20.3971556 109.629869,20.2691556 109.586267,19.9082667 C109.555123,19.6584889 109.521309,19.4069333 109.471479,19.0256" id="Fill-10" fill="#15489F"></path>
                <path d="M153.845369,18.9367111 C152.986682,19.7598222 152.080835,20.3029333 151.00325,20.4709333 C147.740242,20.9776 145.59664,19.5882667 145.420453,16.1767111 C145.305665,13.9553778 145.394648,11.7251556 145.372403,9.49937778 C145.367953,8.99804444 145.620665,8.92426667 146.039775,8.9216 C146.462445,8.91804444 146.64397,9.0496 146.640411,9.49671111 C146.624394,11.2700444 146.631513,13.0433778 146.635962,14.8167111 C146.637742,15.2496 146.655538,15.6824889 146.686682,16.1136 C146.870877,18.6113778 148.907699,19.9642667 151.288886,19.1544889 C151.712445,19.0104889 152.119987,18.7953778 152.503504,18.5616 C153.375538,18.0291556 153.865835,17.3518222 153.815114,16.2096 C153.714564,13.9873778 153.797318,11.7571556 153.775962,9.53137778 C153.770623,9.06026667 153.921004,8.91004444 154.384606,8.91893333 C154.819733,8.92782222 155.024394,9.02382222 155.021725,9.51537778 C155.005708,12.9242667 155.011047,16.3331556 155.017275,19.7411556 C155.018165,20.0904889 154.936301,20.3020444 154.537657,20.3233778 C154.131894,20.3438222 153.960157,20.1624889 153.937021,19.7784889 C153.921004,19.5304889 153.883631,19.2842667 153.845369,18.9367111" id="Fill-12" fill="#15489F"></path>
                <path d="M162.536877,20.5712 C161.215479,20.5836444 160.096072,20.2289778 159.066538,19.5392 C158.665225,19.2698667 158.527301,19.0254222 158.823614,18.5818667 C159.126157,18.1285333 159.389547,18.3249778 159.702767,18.5418667 C160.852428,19.3356444 162.097301,19.7303111 163.496114,19.3596444 C163.757725,19.2912 164.015775,19.1738667 164.248911,19.0334222 C165.517809,18.2645333 165.570309,16.8032 164.30675,16.0218667 C163.612682,15.5925333 162.816284,15.3276444 162.067936,14.9854222 C161.405903,14.6849778 160.726072,14.4183111 160.091623,14.0698667 C159.039843,13.4903111 158.435648,12.6005333 158.567343,11.3649778 C158.697258,10.1516444 159.42336,9.34897778 160.542767,8.93742222 C162.203191,8.32764444 163.795097,8.61208889 165.322936,9.4192 C165.693106,9.61475556 165.743826,9.88497778 165.549843,10.2538667 C165.348742,10.6334222 165.110267,10.7018667 164.737428,10.4912 C163.659843,9.88142222 162.52086,9.56675556 161.285775,9.91608889 C160.52853,10.1294222 159.981284,10.5978667 159.867386,11.4058667 C159.756157,12.1978667 160.216199,12.7338667 160.865775,13.0627556 C161.598996,13.4343111 162.382936,13.7063111 163.135733,14.0423111 C163.83336,14.3543111 164.557682,14.6316444 165.204589,15.0316444 C166.957555,16.1143111 167.002936,18.4787556 165.334504,19.6974222 C164.474038,20.3258667 163.509462,20.5916444 162.536877,20.5712" id="Fill-14" fill="#15489F"></path>
                <path d="M136.690059,10.0382222 C136.229127,10.0382222 135.875864,10.016 135.526161,10.0435556 C135.094593,10.0791111 134.992263,9.88088889 134.988703,9.488 C134.985144,9.09155556 135.093703,8.896 135.522602,8.92622222 C135.872305,8.95022222 136.226458,8.93155556 136.690059,8.93155556 L136.690059,7.38755556 C136.690059,6.95288889 136.722093,6.51733333 136.681161,6.088 C136.629551,5.52888889 136.928534,5.41955556 137.390356,5.40977778 C137.874424,5.39911111 137.927814,5.688 137.925144,6.064 C137.917136,6.98755556 137.922475,7.91111111 137.922475,8.93066667 L139.41561,8.93066667 C140.20489,8.93155556 140.994169,8.93955556 141.782559,8.92977778 C142.220356,8.92444444 142.226585,9.2 142.231034,9.52177778 C142.234593,9.848 142.158958,10.0462222 141.775441,10.0417778 C140.72989,10.0293333 139.684339,10.0382222 138.639678,10.0382222 L137.982983,10.0382222 C137.957178,10.1573333 137.927814,10.2302222 137.927814,10.3022222 C137.932263,12.824 137.927814,15.3448889 137.952729,17.8666667 C137.963407,18.9786667 138.596966,19.5173333 139.67989,19.2995556 C140.405102,19.1537778 141.114297,18.9013333 141.804805,18.6302222 C142.179424,18.4826667 142.382305,18.5262222 142.571839,18.8728889 C142.755144,19.2088889 142.728449,19.4417778 142.385864,19.6622222 C141.192602,20.432 139.882771,20.7137778 138.493746,20.5226667 C137.416161,20.3751111 136.882263,19.7591111 136.755907,18.6711111 C136.713195,18.3004444 136.693619,17.9244444 136.692729,17.552 C136.6865,15.2862222 136.690059,13.0204444 136.690059,10.7555556 L136.690059,10.0382222 Z" id="Fill-17" fill="#15489F"></path>
                <path d="M116.046703,10.2934222 C116.878695,9.35386667 117.828144,8.73875556 118.990263,8.68097778 C119.755517,8.64275556 120.538568,8.82053333 121.302932,8.96097778 C121.827042,9.05786667 121.689119,9.44897778 121.561873,9.7992 C121.433737,10.1547556 121.289585,10.3725333 120.832212,10.1778667 C119.00539,9.40364444 117.297805,10.2774222 116.456025,11.4027556 C116.27272,11.6463111 116.152593,12.0027556 116.149924,12.3085333 C116.125008,14.7298667 116.11789,17.1529778 116.146364,19.5752 C116.155263,20.3592 115.881195,20.3725333 115.167551,20.2863111 C115.043864,20.2720889 114.874797,19.9840889 114.865008,19.8152 C114.828525,19.1867556 114.848992,18.5547556 114.848992,17.9245333 C114.848992,15.1476444 114.852551,12.3707556 114.844542,9.59386667 C114.843653,9.18764444 114.893483,8.89786667 115.411364,8.92364444 C115.744161,8.94053333 115.931025,9.02853333 115.942593,9.39031111 C115.950602,9.65875556 116.002212,9.92631111 116.046703,10.2934222" id="Fill-19" fill="#15489F"></path>
            </g>
        </g>
    </g>
</svg>