<?xml version="1.0" encoding="UTF-8"?>
<svg width="59px" height="39px" viewBox="0 0 59 39" version="1.1" xmlns="http://www.w3.org/2000/svg" xmlns:xlink="http://www.w3.org/1999/xlink">
    <!-- Generator: Sketch 53.1 (72631) - https://sketchapp.com -->
    <title>Page 1</title>
    <desc>Created with Sketch.</desc>
    <defs>
        <polygon id="path-1" points="1.0601844 0.197714286 29.36525 0.197714286 29.36525 16.3670857 1.0601844 16.3670857"></polygon>
    </defs>
    <g id="User's-View" stroke="none" stroke-width="1" fill="none" fill-rule="evenodd">
        <g id="User-icon-Pop-up---Public-Site" transform="translate(-14.000000, -52.000000)">
            <g id="Page-1" transform="translate(14.833333, 51.000000)">
                <g id="Group-23" transform="translate(14.950000, 0.945486)">
                    <mask id="mask-2" fill="white">
                        <use xlink:href="#path-1"></use>
                    </mask>
                    <g id="Clip-22"></g>
                    <path d="M29.36525,16.3670857 C29.36295,16.0893714 29.36525,15.8128 29.3618,15.5350857 C29.3411,13.5670857 29.1847,11.5808 28.8466,9.64022857 C27.945,4.46308571 25.17925,1.57165714 19.9709,0.661942857 C14.10935,-0.360914286 8.32025,0.4208 2.6105,1.88022857 C1.28455,2.21965714 0.897,3.0448 1.11895,4.25965714 C1.3938,5.7808 1.6721,7.3008 1.91475,8.82765714 C2.16775,10.4185143 2.98885,10.7385143 4.6299,10.4219429 C7.64405,9.84022857 10.70765,9.36251429 13.7724,9.17737143 C17.8204,8.9328 19.6374,11.0608 19.0808,14.6390857 C15.341,14.6390857 11.60925,14.3190857 7.9626,14.7168 C6.1203,14.9156571 4.4298,15.5076571 2.9739,16.3670857 L4.03995,16.3670857 L29.36525,16.3670857 Z" id="Fill-21" fill="#15489F" mask="url(#mask-2)"></path>
                </g>
                <polygon id="Fill-24" fill="#007DFF" points="15.59975 22.6426286 17.112 22.6426286 17.112 21.1397714 15.59975 21.1397714"></polygon>
                <polygon id="Fill-26" fill="#007DFF" points="36.78505 22.6426286 38.29845 22.6426286 38.29845 21.1397714 36.78505 21.1397714"></polygon>
                <polygon id="Fill-27" fill="#007DFF" points="39.8107 25.6506286 41.3241 25.6506286 41.3241 24.1477714 39.8107 24.1477714"></polygon>
                <polygon id="Fill-28" fill="#007DFF" points="42.8375 33.1706286 44.34975 33.1706286 44.34975 31.6666286 42.8375 31.6666286"></polygon>
                <polygon id="Fill-29" fill="#007DFF" points="38.29845 28.6586286 39.8107 28.6586286 39.8107 27.1557714 38.29845 27.1557714"></polygon>
                <polygon id="Fill-30" fill="#007DFF" points="41.32525 30.1626286 42.8375 30.1626286 42.8375 28.6586286 41.32525 28.6586286"></polygon>
                <polygon id="Fill-31" fill="#007DFF" points="18.6254 24.1477714 20.1388 24.1477714 20.1388 22.6437714 18.6254 22.6437714"></polygon>
                <polygon id="Fill-32" fill="#007DFF" points="18.6254 30.1626286 20.1388 30.1626286 20.1388 28.6586286 18.6254 28.6586286"></polygon>
                <polygon id="Fill-33" fill="#007DFF" points="21.65105 28.6586286 23.16445 28.6586286 23.16445 27.1557714 21.65105 27.1557714"></polygon>
                <polygon id="Fill-34" fill="#007DFF" points="23.1656 34.6746286 24.67785 34.6746286 24.67785 33.1717714 23.1656 33.1717714"></polygon>
                <polygon id="Fill-35" fill="#007DFF" points="24.67785 30.1626286 26.19125 30.1626286 26.19125 28.6586286 24.67785 28.6586286"></polygon>
                <polygon id="Fill-36" fill="#007DFF" points="27.70465 34.6746286 29.21805 34.6746286 29.21805 33.1717714 27.70465 33.1717714"></polygon>
                <polygon id="Fill-37" fill="#144886" points="12.57295 21.1397714 14.0852 21.1397714 14.0852 19.6357714 12.57295 19.6357714"></polygon>
                <polygon id="Fill-38" fill="#144886" points="12.57295 30.1626286 14.0852 30.1626286 14.0852 28.6586286 12.57295 28.6586286"></polygon>
                <polygon id="Fill-39" fill="#144886" points="15.59975 28.6586286 17.112 28.6586286 17.112 27.1557714 15.59975 27.1557714"></polygon>
                <polygon id="Fill-40" fill="#144886" points="36.78505 27.1546286 38.29845 27.1546286 38.29845 25.6506286 36.78505 25.6506286"></polygon>
                <polygon id="Fill-41" fill="#144886" points="36.78505 25.6506286 38.29845 25.6506286 38.29845 24.1477714 36.78505 24.1477714"></polygon>
                <polygon id="Fill-42" fill="#144886" points="38.29845 24.1477714 39.8107 24.1477714 39.8107 22.6437714 38.29845 22.6437714"></polygon>
                <polygon id="Fill-43" fill="#144886" points="39.8107 27.1546286 41.3241 27.1546286 41.3241 25.6506286 39.8107 25.6506286"></polygon>
                <polygon id="Fill-44" fill="#144886" points="39.8107 21.1397714 41.3241 21.1397714 41.3241 19.6357714 39.8107 19.6357714"></polygon>
                <polygon id="Fill-45" fill="#144886" points="42.8375 28.6586286 44.34975 28.6586286 44.34975 27.1557714 42.8375 27.1557714"></polygon>
                <polygon id="Fill-46" fill="#144886" points="35.27165 21.1397714 36.7839 21.1397714 36.7839 19.6357714 35.27165 19.6357714"></polygon>
                <polygon id="Fill-47" fill="#144886" points="23.1656 21.1397714 24.67785 21.1397714 24.67785 19.6357714 23.1656 19.6357714"></polygon>
                <polygon id="Fill-48" fill="#144886" points="39.8107 37.6814857 41.3241 37.6814857 41.3241 36.1786286 39.8107 36.1786286"></polygon>
                <polygon id="Fill-49" fill="#144886" points="17.112 25.6506286 18.62425 25.6506286 18.62425 24.1477714 17.112 24.1477714"></polygon>
                <polygon id="Fill-50" fill="#144886" points="18.6254 36.1786286 20.1388 36.1786286 20.1388 34.6746286 18.6254 34.6746286"></polygon>
                <polygon id="Fill-51" fill="#144886" points="18.6254 21.1397714 20.1388 21.1397714 20.1388 19.6357714 18.6254 19.6357714"></polygon>
                <polygon id="Fill-52" fill="#144886" points="18.6254 22.6426286 20.1388 22.6426286 20.1388 21.1397714 18.6254 21.1397714"></polygon>
                <polygon id="Fill-53" fill="#144886" points="23.1656 30.1626286 24.67785 30.1626286 24.67785 28.6586286 23.1656 28.6586286"></polygon>
                <polygon id="Fill-54" fill="#144886" points="30.73145 30.1626286 32.24485 30.1626286 32.24485 28.6586286 30.73145 28.6586286"></polygon>
                <polygon id="Fill-55" fill="#1C368E" points="12.57295 24.1477714 14.0852 24.1477714 14.0852 22.6437714 12.57295 22.6437714"></polygon>
                <polygon id="Fill-56" fill="#1C368E" points="14.0852 22.6426286 15.5986 22.6426286 15.5986 21.1397714 14.0852 21.1397714"></polygon>
                <polygon id="Fill-57" fill="#1C368E" points="14.0852 30.1626286 15.5986 30.1626286 15.5986 28.6586286 14.0852 28.6586286"></polygon>
                <polygon id="Fill-58" fill="#1C368E" points="14.0852 21.1397714 15.5986 21.1397714 15.5986 19.6357714 14.0852 19.6357714"></polygon>
                <polygon id="Fill-59" fill="#1C368E" points="14.0852 25.6506286 15.5986 25.6506286 15.5986 24.1477714 14.0852 24.1477714"></polygon>
                <polygon id="Fill-60" fill="#1C368E" points="14.0852 31.6666286 15.5986 31.6666286 15.5986 30.1637714 14.0852 30.1637714"></polygon>
                <polygon id="Fill-61" fill="#1C368E" points="33.75825 25.6506286 35.27165 25.6506286 35.27165 24.1477714 33.75825 24.1477714"></polygon>
                <polygon id="Fill-62" fill="#1C368E" points="33.75825 30.1626286 35.27165 30.1626286 35.27165 28.6586286 33.75825 28.6586286"></polygon>
                <polygon id="Fill-63" fill="#1C368E" points="33.75825 33.1706286 35.27165 33.1706286 35.27165 31.6666286 33.75825 31.6666286"></polygon>
                <polygon id="Fill-64" fill="#1C368E" points="36.78505 30.1626286 38.29845 30.1626286 38.29845 28.6586286 36.78505 28.6586286"></polygon>
                <polygon id="Fill-65" fill="#1C368E" points="35.27165 24.1477714 36.7839 24.1477714 36.7839 22.6437714 35.27165 22.6437714"></polygon>
                <polygon id="Fill-66" fill="#1C368E" points="39.8107 19.6346286 41.3241 19.6346286 41.3241 18.1317714 39.8107 18.1317714"></polygon>
                <polygon id="Fill-67" fill="#1C368E" points="41.32525 24.1477714 42.8375 24.1477714 42.8375 22.6437714 41.32525 22.6437714"></polygon>
                <polygon id="Fill-68" fill="#1C368E" points="42.8375 19.6346286 44.34975 19.6346286 44.34975 18.1317714 42.8375 18.1317714"></polygon>
                <polygon id="Fill-69" fill="#1C368E" points="42.8375 22.6426286 44.34975 22.6426286 44.34975 21.1397714 42.8375 21.1397714"></polygon>
                <polygon id="Fill-70" fill="#1C368E" points="42.8375 31.6666286 44.34975 31.6666286 44.34975 30.1637714 42.8375 30.1637714"></polygon>
                <polygon id="Fill-71" fill="#1C368E" points="35.27165 19.6346286 36.7839 19.6346286 36.7839 18.1317714 35.27165 18.1317714"></polygon>
                <polygon id="Fill-72" fill="#1C368E" points="29.2192 19.6346286 30.73145 19.6346286 30.73145 18.1317714 29.2192 18.1317714"></polygon>
                <polygon id="Fill-73" fill="#1C368E" points="23.1656 19.6346286 24.67785 19.6346286 24.67785 18.1317714 23.1656 18.1317714"></polygon>
                <polygon id="Fill-74" fill="#1C368E" points="33.75825 21.1397714 35.27165 21.1397714 35.27165 19.6357714 33.75825 19.6357714"></polygon>
                <polygon id="Fill-75" fill="#1C368E" points="38.29845 27.1546286 39.8107 27.1546286 39.8107 25.6506286 38.29845 25.6506286"></polygon>
                <polygon id="Fill-76" fill="#1C368E" points="38.29845 22.6426286 39.8107 22.6426286 39.8107 21.1397714 38.29845 21.1397714"></polygon>
                <polygon id="Fill-77" fill="#1C368E" points="36.78505 34.6746286 38.29845 34.6746286 38.29845 33.1717714 36.78505 33.1717714"></polygon>
                <polygon id="Fill-78" fill="#1C368E" points="41.32525 36.1786286 42.8375 36.1786286 42.8375 34.6746286 41.32525 34.6746286"></polygon>
                <polygon id="Fill-79" fill="#1C368E" points="17.112 24.1477714 18.62425 24.1477714 18.62425 22.6437714 17.112 22.6437714"></polygon>
                <polygon id="Fill-80" fill="#1C368E" points="17.112 28.6586286 18.62425 28.6586286 18.62425 27.1557714 17.112 27.1557714"></polygon>
                <polygon id="Fill-81" fill="#1C368E" points="17.112 19.6346286 18.62425 19.6346286 18.62425 18.1317714 17.112 18.1317714"></polygon>
                <polygon id="Fill-82" fill="#1C368E" points="18.6254 25.6506286 20.1388 25.6506286 20.1388 24.1477714 18.6254 24.1477714"></polygon>
                <polygon id="Fill-83" fill="#1C368E" points="18.6254 34.6746286 20.1388 34.6746286 20.1388 33.1717714 18.6254 33.1717714"></polygon>
                <polygon id="Fill-84" fill="#1C368E" points="20.1388 30.1626286 21.65105 30.1626286 21.65105 28.6586286 20.1388 28.6586286"></polygon>
                <polygon id="Fill-85" fill="#1C368E" points="20.1388 21.1397714 21.65105 21.1397714 21.65105 19.6357714 20.1388 19.6357714"></polygon>
                <polygon id="Fill-86" fill="#1C368E" points="21.65105 25.6506286 23.16445 25.6506286 23.16445 24.1477714 21.65105 24.1477714"></polygon>
                <polygon id="Fill-87" fill="#1C368E" points="21.65105 33.1706286 23.16445 33.1706286 23.16445 31.6666286 21.65105 31.6666286"></polygon>
                <polygon id="Fill-88" fill="#1C368E" points="21.65105 27.1546286 23.16445 27.1546286 23.16445 25.6506286 21.65105 25.6506286"></polygon>
                <polygon id="Fill-89" fill="#1C368E" points="23.1656 37.6814857 24.67785 37.6814857 24.67785 36.1786286 23.1656 36.1786286"></polygon>
                <polygon id="Fill-90" fill="#1C368E" points="23.1656 28.6586286 24.67785 28.6586286 24.67785 27.1557714 23.1656 27.1557714"></polygon>
                <polygon id="Fill-91" fill="#1C368E" points="26.1924 30.1626286 27.70465 30.1626286 27.70465 28.6586286 26.1924 28.6586286"></polygon>
                <polygon id="Fill-92" fill="#1C368E" points="27.70465 33.1706286 29.21805 33.1706286 29.21805 31.6666286 27.70465 31.6666286"></polygon>
                <polygon id="Fill-93" fill="#1C368E" points="30.73145 31.6666286 32.24485 31.6666286 32.24485 30.1637714 30.73145 30.1637714"></polygon>
                <polygon id="Fill-94" fill="#1E2D46" points="14.0852 19.6346286 15.5986 19.6346286 15.5986 18.1317714 14.0852 18.1317714"></polygon>
                <polygon id="Fill-95" fill="#1E2D46" points="15.59975 31.6666286 17.112 31.6666286 17.112 30.1637714 15.59975 30.1637714"></polygon>
                <polygon id="Fill-96" fill="#1E2D46" points="33.75825 28.6586286 35.27165 28.6586286 35.27165 27.1557714 33.75825 27.1557714"></polygon>
                <polygon id="Fill-97" fill="#1E2D46" points="33.75825 31.6666286 35.27165 31.6666286 35.27165 30.1637714 33.75825 30.1637714"></polygon>
                <polygon id="Fill-98" fill="#1E2D46" points="35.27165 25.6506286 36.7839 25.6506286 36.7839 24.1477714 35.27165 24.1477714"></polygon>
                <polygon id="Fill-99" fill="#1E2D46" points="38.29845 21.1397714 39.8107 21.1397714 39.8107 19.6357714 38.29845 19.6357714"></polygon>
                <polygon id="Fill-100" fill="#1E2D46" points="41.32525 22.6426286 42.8375 22.6426286 42.8375 21.1397714 41.32525 21.1397714"></polygon>
                <polygon id="Fill-101" fill="#1E2D46" points="33.75825 19.6346286 35.27165 19.6346286 35.27165 18.1317714 33.75825 18.1317714"></polygon>
                <polygon id="Fill-102" fill="#1E2D46" points="24.67785 19.6346286 26.19125 19.6346286 26.19125 18.1317714 24.67785 18.1317714"></polygon>
                <polygon id="Fill-103" fill="#1E2D46" points="32.24485 21.1397714 33.7571 21.1397714 33.7571 19.6357714 32.24485 19.6357714"></polygon>
                <polygon id="Fill-104" fill="#1E2D46" points="38.29845 33.1706286 39.8107 33.1706286 39.8107 31.6666286 38.29845 31.6666286"></polygon>
                <polygon id="Fill-105" fill="#1E2D46" points="39.8107 28.6586286 41.3241 28.6586286 41.3241 27.1557714 39.8107 27.1557714"></polygon>
                <polygon id="Fill-106" fill="#1E2D46" points="39.8107 31.6666286 41.3241 31.6666286 41.3241 30.1637714 39.8107 30.1637714"></polygon>
                <polygon id="Fill-107" fill="#1E2D46" points="15.59975 25.6506286 17.112 25.6506286 17.112 24.1477714 15.59975 24.1477714"></polygon>
                <polygon id="Fill-108" fill="#1E2D46" points="18.6254 19.6346286 20.1388 19.6346286 20.1388 18.1317714 18.6254 18.1317714"></polygon>
                <polygon id="Fill-109" fill="#1E2D46" points="18.6254 27.1546286 20.1388 27.1546286 20.1388 25.6506286 18.6254 25.6506286"></polygon>
                <polygon id="Fill-110" fill="#1E2D46" points="20.1388 34.6746286 21.65105 34.6746286 21.65105 33.1717714 20.1388 33.1717714"></polygon>
                <polygon id="Fill-111" fill="#1E2D46" points="20.1388 22.6426286 21.65105 22.6426286 21.65105 21.1397714 20.1388 21.1397714"></polygon>
                <polygon id="Fill-112" fill="#1E2D46" points="21.65105 19.6346286 23.16445 19.6346286 23.16445 18.1317714 21.65105 18.1317714"></polygon>
                <polygon id="Fill-113" fill="#1E2D46" points="26.1924 33.1706286 27.70465 33.1706286 27.70465 31.6666286 26.1924 31.6666286"></polygon>
                <polygon id="Fill-114" fill="#1E2D46" points="32.24485 34.6746286 33.7571 34.6746286 33.7571 33.1717714 32.24485 33.1717714"></polygon>
                <polygon id="Fill-115" fill="#00AED9" points="12.57295 27.1546286 14.0852 27.1546286 14.0852 25.6506286 12.57295 25.6506286"></polygon>
                <polygon id="Fill-116" fill="#00AED9" points="14.0852 33.1706286 15.5986 33.1706286 15.5986 31.6666286 14.0852 31.6666286"></polygon>
                <polygon id="Fill-117" fill="#00AED9" points="36.78505 33.1706286 38.29845 33.1706286 38.29845 31.6666286 36.78505 31.6666286"></polygon>
                <polygon id="Fill-118" fill="#00AED9" points="36.78505 19.6346286 38.29845 19.6346286 38.29845 18.1317714 36.78505 18.1317714"></polygon>
                <polygon id="Fill-119" fill="#00AED9" points="36.78505 24.1477714 38.29845 24.1477714 38.29845 22.6437714 36.78505 22.6437714"></polygon>
                <polygon id="Fill-120" fill="#00AED9" points="41.32525 27.1546286 42.8375 27.1546286 42.8375 25.6506286 41.32525 25.6506286"></polygon>
                <polygon id="Fill-121" fill="#00AED9" points="42.8375 25.6506286 44.34975 25.6506286 44.34975 24.1477714 42.8375 24.1477714"></polygon>
                <polygon id="Fill-122" fill="#00AED9" points="33.75825 22.6426286 35.27165 22.6426286 35.27165 21.1397714 33.75825 21.1397714"></polygon>
                <polygon id="Fill-123" fill="#00AED9" points="15.59975 21.1397714 17.112 21.1397714 17.112 19.6357714 15.59975 19.6357714"></polygon>
                <polygon id="Fill-124" fill="#00AED9" points="21.65105 31.6666286 23.16445 31.6666286 23.16445 30.1637714 21.65105 30.1637714"></polygon>
                <polygon id="Fill-125" fill="#00AED9" points="27.70465 30.1626286 29.21805 30.1626286 29.21805 28.6586286 27.70465 28.6586286"></polygon>
                <polygon id="Fill-126" fill="#00AED9" points="30.73145 36.1786286 32.24485 36.1786286 32.24485 34.6746286 30.73145 34.6746286"></polygon>
                <polygon id="Fill-127" fill="#085CBB" points="12.57295 22.6426286 14.0852 22.6426286 14.0852 21.1397714 12.57295 21.1397714"></polygon>
                <polygon id="Fill-128" fill="#085CBB" points="14.0852 27.1546286 15.5986 27.1546286 15.5986 25.6506286 14.0852 25.6506286"></polygon>
                <polygon id="Fill-129" fill="#085CBB" points="15.59975 34.6746286 17.112 34.6746286 17.112 33.1717714 15.59975 33.1717714"></polygon>
                <polygon id="Fill-130" fill="#085CBB" points="33.75825 27.1546286 35.27165 27.1546286 35.27165 25.6506286 33.75825 25.6506286"></polygon>
                <polygon id="Fill-131" fill="#085CBB" points="35.27165 31.6666286 36.7839 31.6666286 36.7839 30.1637714 35.27165 30.1637714"></polygon>
                <polygon id="Fill-132" fill="#085CBB" points="39.8107 22.6426286 41.3241 22.6426286 41.3241 21.1397714 39.8107 21.1397714"></polygon>
                <polygon id="Fill-133" fill="#085CBB" points="41.32525 19.6346286 42.8375 19.6346286 42.8375 18.1317714 41.32525 18.1317714"></polygon>
                <polygon id="Fill-134" fill="#085CBB" points="42.8375 24.1477714 44.34975 24.1477714 44.34975 22.6437714 42.8375 22.6437714"></polygon>
                <polygon id="Fill-135" fill="#085CBB" points="42.8375 36.1786286 44.34975 36.1786286 44.34975 34.6746286 42.8375 34.6746286"></polygon>
                <polygon id="Fill-136" fill="#085CBB" points="35.27165 22.6426286 36.7839 22.6426286 36.7839 21.1397714 35.27165 21.1397714"></polygon>
                <polygon id="Fill-137" fill="#085CBB" points="32.24485 19.6346286 33.7571 19.6346286 33.7571 18.1317714 32.24485 18.1317714"></polygon>
                <polygon id="Fill-138" fill="#085CBB" points="27.70465 19.6346286 29.21805 19.6346286 29.21805 18.1317714 27.70465 18.1317714"></polygon>
                <polygon id="Fill-139" fill="#085CBB" points="38.29845 36.1786286 39.8107 36.1786286 39.8107 34.6746286 38.29845 34.6746286"></polygon>
                <polygon id="Fill-140" fill="#085CBB" points="15.59975 19.6346286 17.112 19.6346286 17.112 18.1317714 15.59975 18.1317714"></polygon>
                <polygon id="Fill-141" fill="#085CBB" points="17.112 21.1397714 18.62425 21.1397714 18.62425 19.6357714 17.112 19.6357714"></polygon>
                <polygon id="Fill-142" fill="#085CBB" points="17.112 33.1706286 18.62425 33.1706286 18.62425 31.6666286 17.112 31.6666286"></polygon>
                <polygon id="Fill-143" fill="#085CBB" points="20.1388 19.6346286 21.65105 19.6346286 21.65105 18.1317714 20.1388 18.1317714"></polygon>
                <polygon id="Fill-144" fill="#085CBB" points="21.65105 21.1397714 23.16445 21.1397714 23.16445 19.6357714 21.65105 19.6357714"></polygon>
                <polygon id="Fill-145" fill="#085CBB" points="21.65105 22.6426286 23.16445 22.6426286 23.16445 21.1397714 21.65105 21.1397714"></polygon>
                <polygon id="Fill-146" fill="#085CBB" points="27.70465 36.1786286 29.21805 36.1786286 29.21805 34.6746286 27.70465 34.6746286"></polygon>
                <polygon id="Fill-147" fill="#085CBB" points="32.24485 30.1626286 33.7571 30.1626286 33.7571 28.6586286 32.24485 28.6586286"></polygon>
                <polygon id="Fill-148" fill="#15489F" points="35.27165 28.6586286 36.7839 28.6586286 36.7839 27.1557714 35.27165 27.1557714"></polygon>
                <polygon id="Fill-149" fill="#15489F" points="35.27165 30.1626286 36.7839 30.1626286 36.7839 28.6586286 35.27165 28.6586286"></polygon>
                <polygon id="Fill-150" fill="#15489F" points="36.78505 21.1397714 38.29845 21.1397714 38.29845 19.6357714 36.78505 19.6357714"></polygon>
                <polygon id="Fill-151" fill="#15489F" points="38.29845 19.6346286 39.8107 19.6346286 39.8107 18.1317714 38.29845 18.1317714"></polygon>
                <polygon id="Fill-152" fill="#15489F" points="39.8107 24.1477714 41.3241 24.1477714 41.3241 22.6437714 39.8107 22.6437714"></polygon>
                <polygon id="Fill-153" fill="#15489F" points="41.32525 21.1397714 42.8375 21.1397714 42.8375 19.6357714 41.32525 19.6357714"></polygon>
                <polygon id="Fill-154" fill="#15489F" points="41.32525 25.6506286 42.8375 25.6506286 42.8375 24.1477714 41.32525 24.1477714"></polygon>
                <polygon id="Fill-155" fill="#15489F" points="42.8375 21.1397714 44.34975 21.1397714 44.34975 19.6357714 42.8375 19.6357714"></polygon>
                <polygon id="Fill-156" fill="#15489F" points="41.32525 34.6746286 42.8375 34.6746286 42.8375 33.1717714 41.32525 33.1717714"></polygon>
                <polygon id="Fill-157" fill="#15489F" points="30.73145 19.6346286 32.24485 19.6346286 32.24485 18.1317714 30.73145 18.1317714"></polygon>
                <polygon id="Fill-158" fill="#15489F" points="26.1924 19.6346286 27.70465 19.6346286 27.70465 18.1317714 26.1924 18.1317714"></polygon>
                <polygon id="Fill-159" fill="#15489F" points="39.8107 30.1626286 41.3241 30.1626286 41.3241 28.6586286 39.8107 28.6586286"></polygon>
                <polygon id="Fill-160" fill="#15489F" points="15.59975 27.1546286 17.112 27.1546286 17.112 25.6506286 15.59975 25.6506286"></polygon>
                <polygon id="Fill-161" fill="#15489F" points="18.6254 31.6666286 20.1388 31.6666286 20.1388 30.1637714 18.6254 30.1637714"></polygon>
                <polygon id="Fill-162" fill="#15489F" points="20.1388 24.1477714 21.65105 24.1477714 21.65105 22.6437714 20.1388 22.6437714"></polygon>
                <polygon id="Fill-163" fill="#15489F" points="20.1388 25.6506286 21.65105 25.6506286 21.65105 24.1477714 20.1388 24.1477714"></polygon>
                <polygon id="Fill-164" fill="#15489F" points="20.1388 39.1866286 21.65105 39.1866286 21.65105 37.6826286 20.1388 37.6826286"></polygon>
                <polygon id="Fill-165" fill="#15489F" points="23.1656 33.1706286 24.67785 33.1706286 24.67785 31.6666286 23.1656 31.6666286"></polygon>
                <polygon id="Fill-166" fill="#15489F" points="24.67785 31.6666286 26.19125 31.6666286 26.19125 30.1637714 24.67785 30.1637714"></polygon>
                <polygon id="Fill-167" fill="#15489F" points="29.2192 31.6666286 30.73145 31.6666286 30.73145 30.1637714 29.2192 30.1637714"></polygon>
                <polygon id="Fill-168" fill="#15489F" points="29.2192 33.1706286 30.73145 33.1706286 30.73145 31.6666286 29.2192 31.6666286"></polygon>
                <polygon id="Fill-169" fill="#15489F" points="32.24485 28.6586286 33.7571 28.6586286 33.7571 27.1557714 32.24485 27.1557714"></polygon>
                <g id="Group-172" transform="translate(0.000000, 16.945486)">
                    <path d="M0.50186,0.819085714 L56.42061,0.819085714" id="Fill-170" fill="#754C24"></path>
                    <path d="M0.50186,0.819085714 L56.42061,0.819085714" id="Stroke-171" stroke="#7AC943" stroke-width="2" stroke-linecap="round"></path>
                </g>
            </g>
        </g>
    </g>
</svg>