<?xml version="1.0" encoding="UTF-8"?>
<svg width="13px" height="15px" viewBox="0 0 13 15" version="1.1" xmlns="http://www.w3.org/2000/svg" xmlns:xlink="http://www.w3.org/1999/xlink">
    <!-- Generator: Sketch 52.5 (67469) - http://www.bohemiancoding.com/sketch -->
    <title>Path</title>
    <desc>Created with Sketch.</desc>
    <g id="User's-View" stroke="none" stroke-width="1" fill="none" fill-rule="evenodd">
        <g id="10.00.00---User-icon-Pop-up" transform="translate(-1713.000000, -91.000000)" stroke="currentColor" stroke-width="0.8">
            <g id="Group-17" transform="translate(1698.000000, 74.000000)">
                <path d="M25.7048679,28.4939434 L23.3619245,27.3224717 C23.0592453,27.1711321 22.8679245,26.8615849 22.8679245,26.5230943 L22.8679245,25.6037736 C22.9336604,25.5289623 23.0092075,25.432566 23.0896604,25.3187547 C23.4090189,24.8679245 23.6503774,24.371717 23.8179057,23.8509811 C24.1183774,23.7585094 24.3396226,23.4808491 24.3396226,23.1509434 L24.3396226,22.1698113 C24.3396226,21.9539623 24.243717,21.7609245 24.0943396,21.6260189 L24.0943396,20.2075472 C24.0943396,20.2075472 24.3854906,18 21.3962264,18 C18.406717,18 18.6981132,20.2075472 18.6981132,20.2075472 L18.6981132,21.6260189 C18.5487358,21.7609245 18.4528302,21.9539623 18.4528302,22.1698113 L18.4528302,23.1509434 C18.4528302,23.4094717 18.588717,23.6368491 18.7920566,23.7683208 C19.0370943,24.8357925 19.6792453,25.6037736 19.6792453,25.6037736 L19.6792453,26.500283 C19.6792453,26.8272453 19.5006792,27.1282075 19.2134528,27.2846981 L17.025283,28.4784906 C16.3931887,28.8231132 16,29.4856226 16,30.2055283 L16,31 L26.7924528,31 L26.7924528,30.2536038 C26.7924528,29.508434 26.3713019,28.827283 25.7048679,28.4939434 Z" id="Path"></path>
            </g>
        </g>
    </g>
</svg>