<?xml version="1.0" encoding="UTF-8"?>
<svg width="18px" height="18px" viewBox="0 0 18 18" version="1.1" xmlns="http://www.w3.org/2000/svg" xmlns:xlink="http://www.w3.org/1999/xlink">
    <!-- Generator: Sketch 52.5 (67469) - http://www.bohemiancoding.com/sketch -->
    <title>Shape</title>
    <desc>Created with Sketch.</desc>
    <g id="User's-View" stroke="none" stroke-width="1" fill="currentColor" fill-rule="evenodd">
        <g id="00.20.00-" transform="translate(-1559.000000, -132.000000)" fill="currentColor" fill-rule="nonzero">
            <g id="Group-9" transform="translate(1543.000000, 125.000000)">
                <path d="M33.4354545,23.6990909 L28.8045455,19.0681818 C31.2882459,16.1840638 31.0460806,11.852075 28.2564054,9.26274744 C25.4667302,6.67341986 21.1287297,6.75417895 18.4373634,9.44554523 C15.7459971,12.1369115 15.665238,16.4749121 18.2545656,19.2645872 C20.8438932,22.0542624 25.175882,22.2964278 28.06,19.8127273 L32.6909091,24.4436364 C32.8239093,24.5766366 33.0177614,24.6285791 33.1994431,24.5798977 C33.3811248,24.5312162 33.5230344,24.3893066 33.5717158,24.2076249 C33.6203973,24.0259432 33.5684548,23.8320911 33.4354545,23.6990909 Z M23.47,20.4754545 C20.153279,20.4754545 17.4645455,17.786721 17.4645455,14.47 C17.4645455,11.153279 20.153279,8.46454545 23.47,8.46454545 C26.786721,8.46454545 29.4754545,11.153279 29.4754545,14.47 C29.4709476,17.7848523 26.7848523,20.4709476 23.47,20.4754545 Z" id="Shape"></path>
            </g>
        </g>
    </g>
</svg>