<?xml version="1.0" encoding="UTF-8"?>
<svg width="14px" height="22px" viewBox="0 0 14 22" version="1.1" xmlns="http://www.w3.org/2000/svg" xmlns:xlink="http://www.w3.org/1999/xlink">
    <!-- Generator: Sketch 52.5 (67469) - http://www.bohemiancoding.com/sketch -->
    <title>Group</title>
    <desc>Created with Sketch.</desc>
    <g id="User's-View" stroke="none" stroke-width="1" fill="none" fill-rule="evenodd">
        <g id="00.10.00" transform="translate(-495.000000, -526.000000)" fill="#007AFF" fill-rule="nonzero">
            <g id="Group-25" transform="translate(495.500000, 526.000000)">
                <g id="Group">
                    <path d="M1.97752809,0.0895251685 C0.886251461,0.0895251685 0,0.975779101 0,2.06705326 L0,19.8648135 C0,20.9560876 0.886251461,21.8423416 1.97752809,21.8423416 L10.8764045,21.8423416 C11.9676811,21.8423416 12.8539326,20.9560876 12.8539326,19.8648135 L12.8539326,2.06705326 C12.8539326,0.975779101 11.9676811,0.0895251685 10.8764045,0.0895251685 L1.97752809,0.0895251685 Z M1.97752809,0.583907191 L10.8764045,0.583907191 C11.7023463,0.583907191 12.3595506,1.24111393 12.3595506,2.06705326 L12.3595506,2.56143528 L0.494382022,2.56143528 L0.494382022,2.06705326 C0.494382022,1.24111393 1.15158629,0.583907191 1.97752809,0.583907191 Z M0.494382022,3.0558173 L12.3595506,3.0558173 L12.3595506,17.8872854 L0.494382022,17.8872854 L0.494382022,3.0558173 Z M1.48314607,5.28052404 C1.3537218,5.28054876 1.23596742,5.39828584 1.23595506,5.52771506 L1.23595506,7.99962517 C1.23596742,8.12905438 1.3537218,8.24679146 1.48314607,8.24681618 L3.95505618,8.24681618 C4.08448045,8.24679146 4.20223483,8.12905438 4.20224719,7.99962517 L4.20224719,5.52771506 C4.20223483,5.39828584 4.08448045,5.28054876 3.95505618,5.28052404 L1.48314607,5.28052404 Z M5.19101124,5.28052404 C5.06158697,5.28054876 4.94383258,5.39828584 4.94382022,5.52771506 L4.94382022,7.99962517 C4.94383258,8.12905438 5.06158697,8.24679146 5.19101124,8.24681618 L7.66292135,8.24681618 C7.79234562,8.24679146 7.9101,8.12905438 7.91011236,7.99962517 L7.91011236,5.52771506 C7.9101,5.39828584 7.79234562,5.28054876 7.66292135,5.28052404 L5.19101124,5.28052404 Z M8.8988764,5.28052404 C8.76945213,5.28054876 8.65169775,5.39828584 8.65168539,5.52771506 L8.65168539,7.99962517 C8.65169775,8.12905438 8.76945213,8.24679146 8.8988764,8.24681618 L11.3707865,8.24681618 C11.5002108,8.24679146 11.6179652,8.12905438 11.6179775,7.99962517 L11.6179775,5.52771506 C11.6179652,5.39828584 11.5002108,5.28054876 11.3707865,5.28052404 L8.8988764,5.28052404 Z M1.73033708,5.77490607 L3.70786517,5.77490607 L3.70786517,7.75243416 L1.73033708,7.75243416 L1.73033708,5.77490607 Z M5.43820225,5.77490607 L7.41573034,5.77490607 L7.41573034,7.75243416 L5.43820225,7.75243416 L5.43820225,5.77490607 Z M9.14606742,5.77490607 L11.1235955,5.77490607 L11.1235955,7.75243416 L9.14606742,7.75243416 L9.14606742,5.77490607 Z M1.48314607,8.98838921 C1.3537218,8.98841393 1.23596742,9.10615101 1.23595506,9.23558022 L1.23595506,11.7074854 C1.23596742,11.8369146 1.3537218,11.9546517 1.48314607,11.9546764 L3.95505618,11.9546764 C4.08448045,11.9546517 4.20223483,11.8369146 4.20224719,11.7074854 L4.20224719,9.23558022 C4.20223483,9.10615101 4.08448045,8.98841393 3.95505618,8.98838921 L1.48314607,8.98838921 Z M5.19101124,8.98838921 C5.06158697,8.98841393 4.94383258,9.10615101 4.94382022,9.23558022 L4.94382022,11.7074854 C4.94383258,11.8369146 5.06158697,11.9546517 5.19101124,11.9546764 L7.66292135,11.9546764 C7.79234562,11.9546517 7.9101,11.8369146 7.91011236,11.7074854 L7.91011236,9.23558022 C7.9101,9.10615101 7.79234562,8.98841393 7.66292135,8.98838921 L5.19101124,8.98838921 Z M8.8988764,8.98838921 C8.76945213,8.98841393 8.65169775,9.10615101 8.65168539,9.23558022 L8.65168539,11.7074854 C8.65169775,11.8369146 8.76945213,11.9546517 8.8988764,11.9546764 L11.3707865,11.9546764 C11.5002108,11.9546517 11.6179652,11.8369146 11.6179775,11.7074854 L11.6179775,9.23558022 C11.6179652,9.10615101 11.5002108,8.98841393 11.3707865,8.98838921 L8.8988764,8.98838921 Z M1.73033708,9.48277124 L3.70786517,9.48277124 L3.70786517,11.4602944 L1.73033708,11.4602944 L1.73033708,9.48277124 Z M5.43820225,9.48277124 L7.41573034,9.48277124 L7.41573034,11.4602944 L5.43820225,11.4602944 L5.43820225,9.48277124 Z M9.14606742,9.48277124 L11.1235955,9.48277124 L11.1235955,11.4602944 L9.14606742,11.4602944 L9.14606742,9.48277124 Z M1.48314607,12.6962494 C1.3537218,12.6962742 1.23596742,12.8140112 1.23595506,12.9434404 L1.23595506,15.4153506 C1.23596742,15.5447798 1.3537218,15.6625169 1.48314607,15.6625416 L3.95505618,15.6625416 C4.08448045,15.6625169 4.20223483,15.5447798 4.20224719,15.4153506 L4.20224719,12.9434404 C4.20223483,12.8140112 4.08448045,12.6962742 3.95505618,12.6962494 L1.48314607,12.6962494 Z M5.19101124,12.6962494 C5.06158697,12.6962742 4.94383258,12.8140112 4.94382022,12.9434404 L4.94382022,15.4153506 C4.94383258,15.5447798 5.06158697,15.6625169 5.19101124,15.6625416 L7.66292135,15.6625416 C7.79234562,15.6625169 7.9101,15.5447798 7.91011236,15.4153506 L7.91011236,12.9434404 C7.9101,12.8140112 7.79234562,12.6962742 7.66292135,12.6962494 L5.19101124,12.6962494 Z M8.8988764,12.6962494 C8.76945213,12.6962742 8.65169775,12.8140112 8.65168539,12.9434404 L8.65168539,15.4153506 C8.65169775,15.5447798 8.76945213,15.6625169 8.8988764,15.6625416 L11.3707865,15.6625416 C11.5002108,15.6625169 11.6179652,15.5447798 11.6179775,15.4153506 L11.6179775,12.9434404 C11.6179652,12.8140112 11.5002108,12.6962742 11.3707865,12.6962494 L8.8988764,12.6962494 Z M1.73033708,13.1906315 L3.70786517,13.1906315 L3.70786517,15.1681596 L1.73033708,15.1681596 L1.73033708,13.1906315 Z M5.43820225,13.1906315 L7.41573034,13.1906315 L7.41573034,15.1681596 L5.43820225,15.1681596 L5.43820225,13.1906315 Z M9.14606742,13.1906315 L11.1235955,13.1906315 L11.1235955,15.1681596 L9.14606742,15.1681596 L9.14606742,13.1906315 Z M0.494382022,18.3816674 L12.3595506,18.3816674 L12.3595506,19.8648135 C12.3595506,20.6907528 11.7023463,21.3479596 10.8764045,21.3479596 L1.97752809,21.3479596 C1.15158629,21.3479596 0.494382022,20.6907528 0.494382022,19.8648135 L0.494382022,18.3816674 Z M6.42696629,19.1232404 C6.01741281,19.1232404 5.68539326,19.4552674 5.68539326,19.8648135 C5.68539326,20.2743843 6.01741281,20.6063865 6.42696629,20.6063865 C6.8365173,20.6063865 7.16853933,20.2743843 7.16853933,19.8648135 C7.16853933,19.4552674 6.8365173,19.1232404 6.42696629,19.1232404 Z" id="Shape"></path>
                </g>
            </g>
        </g>
    </g>
</svg>