<?xml version="1.0" encoding="UTF-8"?>
<svg width="12px" height="13px" viewBox="0 0 12 13" version="1.1" xmlns="http://www.w3.org/2000/svg" xmlns:xlink="http://www.w3.org/1999/xlink">
    <!-- Generator: sketchtool 53.1 (72631) - https://sketchapp.com -->
    <title>59214BDC-EF12-4CAA-A9BD-5C9D8E7D0909</title>
    <desc>Created with sketchtool.</desc>
    <g id="Main" stroke="none" stroke-width="1" fill="none" fill-rule="evenodd">
        <g transform="translate(-1714.000000, -188.000000)" fill="currentColor" fill-rule="nonzero" id="Group-17">
            <g transform="translate(1693.000000, 81.000000)">
                <g id="Group-25" transform="translate(21.000000, 104.000000)">
                    <path d="M0.914443401,3.85526316 L0.914443401,15.1447368 L4.65693608,15.1447368 C4.89768122,15.1447368 5.09465452,15.3371711 5.09465452,15.5723684 C5.09465452,15.8075658 4.89768122,16 4.65693608,16 L0.47672496,16 C0.235979817,16 0.0390065183,15.8075658 0.0390065183,15.5723684 L0.0390065183,3.42763158 C0.0390065183,3.19243421 0.235979817,3 0.47672496,3 L4.65693608,3 C4.89768122,3 5.09465452,3.19243421 5.09465452,3.42763158 C5.09465452,3.66282895 4.89768122,3.85526316 4.65693608,3.85526316 L0.914443401,3.85526316 Z M11.6385452,9.20065789 L9.25297971,6.84868421 C9.07789234,6.67763158 8.81526127,6.67763158 8.6401739,6.84868421 C8.46508652,7.01973684 8.46508652,7.27631579 8.6401739,7.44736842 L10.2816181,9.07236842 L3.60641182,9.07236842 C3.36566667,9.07236842 3.16869338,9.26480263 3.16869338,9.5 C3.16869338,9.73519737 3.36566667,9.92763158 3.60641182,9.92763158 L10.2816181,9.92763158 L8.6401739,11.5526316 C8.46508652,11.7236842 8.46508652,12.0016447 8.6401739,12.1513158 C8.72771758,12.2368421 8.83714719,12.2796053 8.94657681,12.2796053 C9.05600642,12.2796053 9.16543603,12.2368421 9.25297971,12.1513158 L11.6385452,9.79934211 C11.7917467,9.62828947 11.7917467,9.37171053 11.6385452,9.20065789 Z" id="Shape-Copy-3"></path>
                </g>
            </g>
        </g>
    </g>
</svg>