<?xml version="1.0" encoding="UTF-8"?>
<svg width="17px" height="16px" viewBox="0 0 17 16" version="1.1" xmlns="http://www.w3.org/2000/svg" xmlns:xlink="http://www.w3.org/1999/xlink">
    <!-- Generator: Sketch 52.5 (67469) - http://www.bohemiancoding.com/sketch -->
    <title>Group 2</title>
    <desc>Created with Sketch.</desc>
    <g id="User's-View" stroke="none" stroke-width="1" fill="none" fill-rule="evenodd">
        <g id="00.10.00" transform="translate(-1038.000000, -683.000000)" fill="#1DB479">
            <g id="Group-2" transform="translate(1038.500000, 683.000000)">
                <path d="M7.97575431,15.9515086 C3.5636349,15.9515086 0,12.3878737 0,7.97575431 C0,3.5636349 3.5636349,0 7.97575431,0 C12.3878737,0 15.9515086,3.5636349 15.9515086,7.97575431 C15.9515086,12.3878737 12.3878737,15.9515086 7.97575431,15.9515086 Z M7.97575431,0.678787601 C3.95393778,0.678787601 0.678787601,3.95393778 0.678787601,7.97575431 C0.678787601,11.9975708 3.95393778,15.272721 7.97575431,15.272721 C11.9975708,15.272721 15.272721,11.9975708 15.272721,7.97575431 C15.272721,3.95393778 11.9975708,0.678787601 7.97575431,0.678787601 Z" id="Shape" fill-rule="nonzero"></path>
                <path d="M6.9745426,10.1478746 C6.88969415,10.1478746 6.8048457,10.1139353 6.73696694,10.0460565 L5.05696763,8.36605718 C4.92121011,8.23029966 4.92121011,8.02666338 5.05696763,7.89090586 C5.19272515,7.75514834 5.39636143,7.75514834 5.53211895,7.89090586 L6.9745426,9.33332951 L10.4363594,5.87151275 C10.5721169,5.73575523 10.7757532,5.73575523 10.9115107,5.87151275 C11.0472682,6.00727027 11.0472682,6.21090655 10.9115107,6.34666407 L7.21211826,10.0460565 C7.1442395,10.1139353 7.05939105,10.1478746 6.9745426,10.1478746 Z" id="Path"></path>
            </g>
        </g>
    </g>
</svg>