<?xml version="1.0" encoding="UTF-8"?>
<svg width="24px" height="22px" viewBox="0 0 24 22" version="1.1" xmlns="http://www.w3.org/2000/svg" xmlns:xlink="http://www.w3.org/1999/xlink">
    <!-- Generator: Sketch 52.5 (67469) - http://www.bohemiancoding.com/sketch -->
    <title>user</title>
    <desc>Created with Sketch.</desc>
    <g id="User's-View" stroke="none" stroke-width="1" fill="none" fill-rule="evenodd">
        <g id="00.10.00" transform="translate(-32.000000, -247.000000)" stroke="#007AFF" stroke-width="0.8">
            <g id="user" transform="translate(44.000000, 258.500000) scale(-1, 1) translate(-44.000000, -258.500000) translate(32.500000, 248.000000)">
                <path d="M20.4306218,16.5085801 L16.787391,14.6869647 C16.3167308,14.4516346 16.0192308,13.9702949 16.0192308,13.4439487 L16.0192308,12.0144231 C16.1214487,11.8980929 16.2389231,11.7481987 16.3640256,11.5712244 C16.8606218,10.8701923 17.2359295,10.0985994 17.4964327,9.28886538 C17.9636603,9.14507372 18.3076923,8.71331731 18.3076923,8.20032051 L18.3076923,6.67467949 C18.3076923,6.33903846 18.1585609,6.03886859 17.9262821,5.82909295 L17.9262821,3.62339744 C17.9262821,3.62339744 18.379016,0.190705128 13.7307692,0.190705128 C9.08214103,0.190705128 9.53525641,3.62339744 9.53525641,3.62339744 L9.53525641,5.82909295 C9.30297756,6.03886859 9.15384615,6.33903846 9.15384615,6.67467949 L9.15384615,8.20032051 C9.15384615,8.60232692 9.36514744,8.95589423 9.68133654,9.16033013 C10.0623654,10.8202276 11.0608974,12.0144231 11.0608974,12.0144231 L11.0608974,13.4084776 C11.0608974,13.9168974 10.7832308,14.3848878 10.3365994,14.6282276 L6.93403846,16.4845513 C5.95114423,17.0204327 5.33974359,18.0506218 5.33974359,19.1700609 L5.33974359,20.4054487 L22.1217949,20.4054487 L22.1217949,19.2448173 C22.1217949,18.0860929 21.4669135,17.0269167 20.4306218,16.5085801 Z" id="Path"></path>
                <path d="M6.93403846,16.4845513 L9.20190385,15.2476378 C9.1889359,15.2350513 9.19999679,15.2312372 9.22669551,15.2339071 L10.3365994,14.628609 C10.7832308,14.3848878 11.0608974,13.9172788 11.0608974,13.4084776 L11.0608974,12.0144231 C11.0608974,12.0144231 10.6558397,11.528125 10.2629872,10.7469968 C10.2629872,10.7466154 10.2626058,10.746234 10.2626058,10.7458526 C10.2111154,10.6436346 10.1603878,10.5356955 10.1104231,10.4239423 C10.1035577,10.4083045 10.0966923,10.3934295 10.0898269,10.3777917 C10.0390994,10.2622244 9.98951603,10.1428429 9.94260256,10.0177404 C9.93955128,10.0097308 9.93688141,10.0009583 9.93383013,9.99294872 C9.89263782,9.88233974 9.85411538,9.76829808 9.81711859,9.65120513 C9.80720192,9.61916667 9.79728526,9.58750962 9.78775,9.55547115 C9.74922756,9.42655449 9.71299359,9.29534936 9.68171795,9.15956731 C9.36514744,8.95589423 9.15384615,8.60232692 9.15384615,8.20032051 L9.15384615,6.67467949 C9.15384615,6.33903846 9.30297756,6.03886859 9.53525641,5.82909295 L9.53525641,3.67488782 C8.99632372,3.25686218 8.16103526,2.86057692 6.86538462,2.86057692 C3.21795833,2.86057692 3.05128205,5.91185897 3.05128205,5.91185897 L3.05128205,7.81700321 C2.85066026,7.99817308 2.66987179,8.25715064 2.66987179,8.54702244 L2.66987179,9.86479487 C2.66987179,10.2122596 2.85256731,10.5173878 3.12527564,10.6939808 C3.45443269,12.1273205 4.55937821,13.1590353 4.55937821,13.1590353 L4.55937821,14.3631474 C4.55937821,14.8021506 4.31947115,15.2064455 3.93386538,15.4166026 L1.37689103,17.0192885 C0.528253205,17.4823205 0,18.3717692 0,19.3386442 L0,20.4054487 L5.33974359,20.4054487 L5.33974359,19.1700609 C5.33974359,18.0506218 5.95114423,17.0204327 6.93403846,16.4845513 Z" id="Path"></path>
            </g>
        </g>
    </g>
</svg>